<?xml version="1.0" encoding="utf-8"?>
<!-- Generator: Adobe Illustrator 22.0.0, SVG Export Plug-In . SVG Version: 6.00 Build 0)  -->
<svg version="1.1" id="Layer_1" xmlns="http://www.w3.org/2000/svg" xmlns:xlink="http://www.w3.org/1999/xlink" x="0px" y="0px"
	 viewBox="0 0 28 28" style="enable-background:new 0 0 28 28;" xml:space="preserve">
<g>
	<path d="M22.9,5.1c0.1,0.1,0,0.2-0.1,0.3c-0.3,0.5-0.5,1.1-0.9,1.5c-0.2,0.3-0.2,0.6-0.3,0.9c-0.1,0.5-0.1,1-0.3,1.4
		C21.3,9.5,21.2,9.8,21,10c-0.3,0.3-0.7,0.4-1,0.1s-0.4-0.6-0.1-1c0.1-0.2,0.3-0.4,0.4-0.6s0.1-0.5-0.1-0.7
		c-0.2-0.2-0.4-0.1-0.6,0.1C19,8.3,18.5,9,18.2,9.7c-0.1,0.3-0.1,0.6-0.1,0.8c0.1,0.5,0.1,1,0,1.5c-0.1,0.1-0.1,0.4-0.3,0.4
		c-0.3,0.1-0.4,0.4-0.6,0.6c-0.1,0.2-0.2,0.4-0.4,0.3c-0.2-0.1-0.2-0.4-0.1-0.5c0.1-0.5,0.3-0.9,0.6-1.3c0.3-0.4,0.6-0.9,0.3-1.5
		c-0.1-0.1-0.1-0.4-0.1-0.5c-0.1-0.3-0.2-0.4-0.4-0.1c-0.3,0.3-0.4,0.6-0.4,1c-0.1,0.5-0.1,0.9-0.1,1.4c0,0.6-0.2,0.9-0.6,0.8
		c-0.4,0-0.4-0.3-0.4-0.9c0-0.2,0.1-0.5,0.1-0.7c0-0.4-0.1-0.6-0.4-0.7c-0.4-0.1-0.5,0.1-0.6,0.4c-0.2,0.5-0.5,0.9-0.4,1.5
		c0,0.1,0,0.4-0.2,0.4s-0.1-0.2-0.2-0.4c-0.1-0.2-0.1-0.6-0.3-0.6c-0.3-0.1-0.4,0.3-0.4,0.6c-0.1,0.3-0.2,0.6-0.2,0.9
		c-0.1,1-0.9,1.3-1.8,1.4c-0.3,0-0.6,0.1-0.8,0.3c-0.1,0.1-0.1,0.1-0.1,0.1c-0.4,0.5-0.6,1-0.7,1.6c0,0.2-0.1,0.4-0.1,0.7
		c0,0.1-0.1,0.2-0.1,0.2c-0.5,0.1-0.6,0.4-0.6,0.9c0,0.4,0,0.6,0,1c0,0.1,0,0.3-0.1,0.4s-0.1-0.1-0.2-0.2c-0.1-0.1-0.1-0.1-0.1-0.1
		C8,19.2,8,19.3,8,19.4c-0.1,0.2-0.1,0.4-0.1,0.6c0,0.1-0.1,0.2-0.2,0.2c-0.1,0-0.1-0.1-0.2-0.2c-0.1-0.1,0-0.4-0.2-0.4
		S7,19.8,6.9,20c-0.1,0.1-0.3,0.5-0.5,0c-0.1-0.1-0.1-0.1-0.3-0.1c-0.2,0.1-0.3,0.2-0.4,0.4c-0.1,0.2-0.1,0.5-0.1,0.7
		c0,0.1,0,0.4-0.2,0.4c-0.2,0-0.2-0.2-0.2-0.4c0-0.2,0-0.5,0.1-0.7c0.6-1.5,1-3.2,1.4-4.7c0.5-1.7,1-3.5,1.5-5.1
		c0-0.2,0.1-0.4,0.2-0.4c1.3-1.1,2.6-2.2,3.9-3.2c0.2-0.1,0.4-0.3,0.7-0.3"/>
	<path d="M16,13.6c0,0.6-0.1,1-0.4,1.4c-0.1,0.3-0.4,0.4-0.6,0.4c-0.3-0.1-0.4-0.4-0.4-0.6c0.1-0.6,0.5-1.1,0.8-1.6
		c0.1-0.2,0.4-0.1,0.5,0.1C16,13.4,15.9,13.5,16,13.6z"/>
	<path d="M10,14.7c0.1-0.1,0.1-0.1,0.1-0.1c0.6-0.1,0.8,0.1,0.8,0.7c0,0.3-0.1,0.5-0.2,0.7c-0.1,0.2-0.2,0.4-0.5,0.3
		c-0.2-0.1-0.4-0.2-0.4-0.5C9.9,15.4,9.9,15.1,10,14.7z"/>
	<path d="M18.4,16.8c0.1-0.4,0.3-0.8,0.6-1.3c0.1-0.1,0.1-0.1,0.3-0.1c0.1,0.1,0.2,0.1,0.1,0.3c0,0.5-0.1,0.9-0.3,1.3
		c-0.1,0.2-0.3,0.3-0.5,0.2C18.5,17.2,18.4,17,18.4,16.8z"/>
	<path d="M19.5,12c0.1-0.4,0.1-0.8,0.4-1.1c0.1-0.1,0.1-0.2,0.3-0.1c0.1,0,0.2,0.1,0.2,0.3c0,0.5-0.1,1-0.4,1.4
		c-0.1,0.1-0.1,0.1-0.3,0.1C19.4,12.3,19.5,12.2,19.5,12z"/>
	<path d="M11.3,17.1c0-0.3,0.1-0.5,0.2-0.8c0.2-0.4,0.3-0.8,0.3-1.2c0-0.1,0-0.4,0.1-0.4c0.2,0,0.1,0.2,0.1,0.4
		c-0.1,0.7-0.2,1.3-0.4,2c-0.1,0.1-0.1,0.2-0.2,0.2C11.3,17.3,11.3,17.2,11.3,17.1z"/>
	<path d="M5.1,22.4c0.1-0.2,0.1-0.6,0.4-0.6c0.3,0,0.4,0.3,0.4,0.5c0,0.3-0.1,0.6-0.4,0.6C5.1,22.9,5.1,22.7,5.1,22.4z"/>
</g>
</svg>
