<?xml version="1.0" encoding="utf-8"?>
<!-- Generator: Adobe Illustrator 22.0.0, SVG Export Plug-In . SVG Version: 6.00 Build 0)  -->
<svg version="1.1" id="Layer" xmlns="http://www.w3.org/2000/svg" xmlns:xlink="http://www.w3.org/1999/xlink" x="0px" y="0px"
	 viewBox="0 0 800 800" style="enable-background:new 0 0 800 800;" xml:space="preserve">
<path d="M786.5,117.7H489.7c-9.2,0-17.8,4.7-23,12.6L150.3,605.9c-5.5,8.2-6.1,19-1.6,27.8l31,61.4c4.3,8.5,15.6,9.4,21.1,1.7
	l215.7-302.8l264.2-0.4c9.2,0,14.8-10.4,10.2-18.6l-37.3-66.3c-4-7.2-11.4-11.6-19.4-11.5l-148.8,0.4l52.4-67.2l193.2,0.2
	c9.4,0,18.1-5.1,22.8-13.6l44.3-78C803.4,129.5,796.9,117.7,786.5,117.7z"/>
<path d="M162.9,500.3l14.1-21.7c3.2-4.9,3.4-11.2,0.5-16.2l-112.7-201c-4.1-7.4-1.6-16.9,5.6-21l303-174c7-4,15.7-1.5,19.7,5.7
	l11,19.8c5.4,9.6,18.5,10.2,24.6,1.1l14.3-21.4c3.3-4.9,3.5-11.2,0.6-16.4l-19.9-35.6C416.9,7,404.2,0,391.2,0
	C385,0,378.8,1.6,373,4.9L19.5,207.8C1,218.5-5.5,243,5.2,262.1l133,237.3C143.6,509.1,156.9,509.5,162.9,500.3z"/>
<path d="M361.3,726c-0.1-0.2-0.2-0.4-0.3-0.5l-42.6-76c-4-7.1-13.6-7.6-18.3-1l-29.3,41.2L260.6,704c-2.6,3.7-2.9,8.6-0.7,12.5
	l35.9,64c7,12.5,19.6,19.5,32.6,19.5c6,0,12.1-1.5,17.7-4.6l29.3-16.3c5.3-2.9,7.3-9.7,4.6-15.3L361.3,726z"/>
<path d="M665.9,453.4c-1.8-3.2-5.1-5.2-8.7-5.2H630h-40.6c-7.8,0-12.6,8.8-8.7,15.8l59.5,106.3l24.3,41.7c3.1,5.3,9.8,6.7,14.5,3.1
	l21.9-16.6c0.3-0.2,0.7-0.5,1-0.7c18.5-10.6,25-35.1,14.4-54.2L665.9,453.4z"/>
<path d="M531.4,454.9c-2.8-5-7.9-8-13.4-8h-64.7c-4.9,0-9.5,2.4-12.5,6.5l-98,137.8c-3.7,5.2-4.1,12.1-1,17.7l72,129.7
	c4.2,7.6,13.4,10.3,20.8,6.1l182.7-102.6c7.7-4.3,10.5-14.5,6.1-22.4L531.4,454.9z"/>
<path d="M376,149c-6.9-13.1-22.7-17.8-35.3-10.6L148.3,248.8c-12.6,7.2-17.1,23.7-10.2,36.7c4.7,8.9,13.6,14,22.8,14
	c4.2,0,8.5-1.1,12.5-3.4l192.4-110.5C378.4,178.5,382.9,162,376,149z"/>
<path d="M180.9,360.8l4.9,8.8c5,6,12.2,9.3,19.6,9.3c4.2,0,8.5-1.1,12.5-3.4l36.3-20.8l66.5-99.9l-127.8,73.4
	C181.7,334.6,176.8,348.5,180.9,360.8z"/>
</svg>
