<?xml version="1.0" encoding="utf-8"?>
<!-- Generator: Adobe Illustrator 22.0.0, SVG Export Plug-In . SVG Version: 6.00 Build 0)  -->
<svg version="1.1" xmlns="http://www.w3.org/2000/svg" xmlns:xlink="http://www.w3.org/1999/xlink" x="0px" y="0px"
	 viewBox="0 0 800 800" style="enable-background:new 0 0 800 800;" xml:space="preserve">
<style type="text/css">
	.st0{fill:url(#SVGID_1_);}
	.st1{fill:#FFFFFF;fill-opacity:0.75;}
	.st2{display:none;}
	.st3{display:inline;fill:#1A1A1A;}
	.st4{fill:#1A1A1A;}
	.st5{display:none;fill:#1A1A1A;}
	.st6{fill:none;}
	.st7{fill:url(#SVGID_4_);}
	.st8{fill:#B3B3B3;}
	.st9{fill:#CCCCCC;}
	.st10{fill:url(#SVGID_5_);}
	.st11{fill:#FFFFFF;}
	.st12{fill:url(#SVGID_6_);}
	.st13{fill:url(#SVGID_7_);}
</style>
<g id="Layer_1">
	<g id="Layer_10">
	</g>
	<g>
		
			<image style="overflow:visible;opacity:0.4;" width="579" height="593" xlink:href="F5D1EF16.png"  transform="matrix(1 0 0 1 112 114.5)">
		</image>
		<g>
			<path d="M502.9,324.4l0.1,0.1h100.6c1.5,0,2.8-0.8,3.6-2.1l34.4-60.8c1.5-2.7-0.4-6.1-3.6-6.1H466.2c-0.7,0-1.3,0.2-1.8,0.4
				l-51.1-89.5c-1.6-2.9-5.3-3.9-8.2-2.2L164,301.9c-2.9,1.6-3.9,5.3-2.3,8.1l136.6,243.8l13.6,25.7c0.5,1,1.4,1.7,2.3,2l41.9,74.8
				c1.6,2.9,5.3,3.9,8.2,2.3l30.7-17.2l0,0l175.6-98.7l0.1,0.3l36.8-20.6c2.9-1.6,3.9-5.3,2.3-8.2l-54-95.3
				c-0.1-0.2-0.2-0.4-0.3-0.6l-28.4-50.8c-0.7-1.3-2.1-2.1-3.6-2.1h-49.8l-0.1-3.5L502.9,324.4z M532.9,455.9l-3.8-6.7
				c-1.2-2.2-0.4-5,1.8-6.2l13.1-7.3c2.2-1.2,5-0.4,6.2,1.8l3.8,6.7c1.2,2.2,0.4,5-1.8,6.2l-13.1,7.3
				C536.9,458.8,534.2,458.1,532.9,455.9z M517.5,424.5h1.2C518.3,424.6,517.9,424.5,517.5,424.5z M325.4,572.1l-0.4-0.7l14.2-20.1
				c1.4,0.2,2.7,1,3.4,2.3l3.8,6.7c1.2,2.2,0.4,5-1.8,6.2l-13.1,7.3C329.5,575,326.7,574.3,325.4,572.1z M350.5,607.5
				c-2.2,1.2-5,0.4-6.2-1.8l-3.8-6.7c-1.2-2.2-0.4-5,1.8-6.2l13.1-7.3c2.2-1.2,5-0.4,6.2,1.8l3.8,6.7c1.2,2.2,0.4,5-1.8,6.2
				L350.5,607.5z M381.7,634.2l-13.1,7.3c-2.2,1.2-5,0.4-6.2-1.8l-3.8-6.7c-1.2-2.2-0.4-5,1.8-6.2l13.1-7.3c2.2-1.2,5-0.4,6.2,1.8
				l3.8,6.7C384.7,630.2,383.9,632.9,381.7,634.2z M588.6,504.2l3.8,6.7c1.2,2.2,0.4,5-1.8,6.2l-13.1,7.3c-2.2,1.2-5,0.4-6.2-1.8
				l-3.8-6.7c-1.2-2.2-0.4-5,1.8-6.2l13.1-7.3C584.5,501.2,587.3,502,588.6,504.2z M569,471l3.8,6.7c1.2,2.2,0.4,5-1.8,6.2
				l-13.1,7.3c-2.2,1.2-5,0.4-6.2-1.8l-3.8-6.7c-1.2-2.2-0.4-5,1.8-6.2l13.1-7.3C565,468,567.8,468.8,569,471z M471,365.5l0.1-0.2
				l0.1,0.2H471z"/>
		</g>
	</g>
</g>
<g id="Film_strip">
	<g id="Perfs">
		<linearGradient id="SVGID_1_" gradientUnits="userSpaceOnUse" x1="290" y1="515" x2="580" y2="515">
			<stop  offset="0" style="stop-color:#F7931E"/>
			<stop  offset="0.2654" style="stop-color:#DE6656"/>
			<stop  offset="0.616" style="stop-color:#BF2F99"/>
			<stop  offset="0.8703" style="stop-color:#AB0DC4"/>
			<stop  offset="1" style="stop-color:#A400D4"/>
		</linearGradient>
		<polygon class="st0" points="395,641.5 580,537.5 491,388.5 290,459.5 		"/>
		<polygon class="st1" points="393.3,642.4 580,537.5 496,398.5 293,463.5 		"/>
		<g id="Layer_11">
			<g>
				<defs>
					<polygon id="SVGID_2_" points="320,508.5 503,404.5 578,538.5 395,641.5 					"/>
				</defs>
				<clipPath id="SVGID_3_">
					<use xlink:href="#SVGID_2_"  style="overflow:visible;"/>
				</clipPath>
				<g transform="matrix(1 0 2.980232e-08 1 -3.051758e-05 -3.051758e-05)" style="clip-path:url(#SVGID_3_);">
					
						<image style="overflow:visible;" width="1365" height="752" xlink:href="F5D1EF1A.jpg"  transform="matrix(0.2185 -0.1224 0.1284 0.2292 275 510.5922)">
					</image>
				</g>
			</g>
		</g>
		<g class="st2">
			<path class="st3" d="M611.9,615.9l-0.4-0.7C611.6,615.4,611.8,615.7,611.9,615.9L611.9,615.9z"/>
			<path class="st3" d="M441.3,710.6l0.4,0.7l0,0C441.5,711,441.4,710.8,441.3,710.6z"/>
			<path class="st3" d="M521.3,473.3l-153.4,85.9c-4.6,2.6-10.6,0.9-13.2-3.7l18.8,33.6c-2.6-4.6-0.9-10.5,3.7-13.1l153.4-85.9
				c4.6-2.6,10.6-0.9,13.2,3.7L525,460.1C527.6,464.8,525.9,470.7,521.3,473.3z"/>
			<path class="st3" d="M473.5,388.6l-153.4,85.9c-4.6,2.6-10.6,0.9-13.2-3.7l17.7,31.5c-2.6-4.6-0.9-10.5,3.7-13.1l153.4-85.9
				c4.6-2.6,10.6-0.9,13.2,3.7l-17.7-31.5C479.8,380.1,478.2,386,473.5,388.6z"/>
		</g>
		<g>
			
				<image style="overflow:visible;opacity:0.5;" width="194" height="280" xlink:href="F5D1EF1A.png"  transform="matrix(1 0 0 1 435 281.5)">
			</image>
			<g>
				<path class="st4" d="M479,379.5l91.7,163.6l36.8-20.6c2.9-1.6,3.9-5.3,2.3-8.2l-77.5-136.9 M592.3,511c1.2,2.2,0.4,5-1.8,6.2
					l-13.1,7.3c-2.2,1.2-5,0.4-6.2-1.8l-3.8-6.7c-1.2-2.2-0.4-5,1.8-6.2l13.1-7.3c2.2-1.2,5-0.4,6.2,1.8L592.3,511z M453.8,314.5
					c-1.2-2.2-0.4-5,1.8-6.2l13.1-7.3c2.2-1.2,5-0.4,6.2,1.8l3.8,6.7c1.2,2.2,0.4,5-1.8,6.2l-13.1,7.3c-2.2,1.2-5,0.4-6.2-1.8
					L453.8,314.5z M510.3,415.5c-1.2-2.2-0.4-5,1.8-6.2l13.1-7.3c2.2-1.2,5-0.4,6.2,1.8l3.8,6.7c1.2,2.2,0.4,5-1.8,6.2l-13.1,7.3
					c-2.2,1.2-5,0.4-6.2-1.8L510.3,415.5z M529.1,449.1c-1.2-2.2-0.4-5,1.8-6.2l13.1-7.3c2.2-1.2,5-0.4,6.2,1.8l3.8,6.7
					c1.2,2.2,0.4,5-1.8,6.2l-13.1,7.3c-2.2,1.2-5,0.4-6.2-1.8L529.1,449.1z M548,482.8c-1.2-2.2-0.4-5,1.8-6.2l13.1-7.3
					c2.2-1.2,5-0.4,6.2,1.8l3.8,6.7c1.2,2.2,0.4,5-1.8,6.2l-13.1,7.3c-2.2,1.2-5,0.4-6.2-1.8L548,482.8z"/>
			</g>
		</g>
		<path class="st5" d="M605.8,485.5l-80.5-142.1l-10.9-20.1l-51.1-90.9l-45.6,15.9l146,260.7L605.8,485.5z M585.3,477
			c1.2,2.2,0.4,5-1.8,6.2l-13.1,7.3c-2.2,1.2-5,0.4-6.2-1.8l-3.8-6.7c-1.2-2.2-0.4-5,1.8-6.2l13.1-7.3c2.2-1.2,5-0.4,6.2,1.8
			L585.3,477z M446.8,280.5c-1.2-2.2-0.4-5,1.8-6.2l13.1-7.3c2.2-1.2,5-0.4,6.2,1.8l3.8,6.7c1.2,2.2,0.4,5-1.8,6.2l-13.1,7.3
			c-2.2,1.2-5,0.4-6.2-1.8L446.8,280.5z M465.6,314.2c-1.2-2.2-0.4-5,1.8-6.2l13.1-7.3c2.2-1.2,5-0.4,6.2,1.8l3.8,6.7
			c1.2,2.2,0.4,5-1.8,6.2l-13.1,7.3c-2.2,1.2-5,0.4-6.2-1.8L465.6,314.2z M484.5,347.8c-1.2-2.2-0.4-5,1.8-6.2l13.1-7.3
			c2.2-1.2,5-0.4,6.2,1.8l3.8,6.7c1.2,2.2,0.4,5-1.8,6.2l-13.1,7.3c-2.2,1.2-5,0.4-6.2-1.8L484.5,347.8z M503.3,381.5
			c-1.2-2.2-0.4-5,1.8-6.2l13.1-7.3c2.2-1.2,5-0.4,6.2,1.8l3.8,6.7c1.2,2.2,0.4,5-1.8,6.2l-13.1,7.3c-2.2,1.2-5,0.4-6.2-1.8
			L503.3,381.5z M522.1,415.1c-1.2-2.2-0.4-5,1.8-6.2l13.1-7.3c2.2-1.2,5-0.4,6.2,1.8l3.8,6.7c1.2,2.2,0.4,5-1.8,6.2l-13.1,7.3
			c-2.2,1.2-5,0.4-6.2-1.8L522.1,415.1z M541,448.8c-1.2-2.2-0.4-5,1.8-6.2l13.1-7.3c2.2-1.2,5-0.4,6.2,1.8l3.8,6.7
			c1.2,2.2,0.4,5-1.8,6.2l-13.1,7.3c-2.2,1.2-5,0.4-6.2-1.8L541,448.8z"/>
		<g>
			
				<image style="overflow:visible;opacity:0.5;" width="134" height="156" xlink:href="F5D1EF1E.png"  transform="matrix(1 0 0 1 286 521.5)">
			</image>
			<g>
				<path class="st4" d="M345.9,539.6l-41.6,24.3l51.8,92.5c1.6,2.9,5.3,3.9,8.2,2.3l36.8-20.6L345.9,539.6z M325.4,572.1l-3.8-6.7
					c-1.2-2.2-0.4-5,1.8-6.2l13.1-7.3c2.2-1.2,5-0.4,6.2,1.8l3.8,6.7c1.2,2.2,0.4,5-1.8,6.2l-13.1,7.3
					C329.5,575,326.7,574.3,325.4,572.1z M350.5,607.5c-2.2,1.2-5,0.4-6.2-1.8l-3.8-6.7c-1.2-2.2-0.4-5,1.8-6.2l13.1-7.3
					c2.2-1.2,5-0.4,6.2,1.8l3.8,6.7c1.2,2.2,0.4,5-1.8,6.2L350.5,607.5z M381.7,634.2l-13.1,7.3c-2.2,1.2-5,0.4-6.2-1.8l-3.8-6.7
					c-1.2-2.2-0.4-5,1.8-6.2l13.1-7.3c2.2-1.2,5-0.4,6.2,1.8l3.8,6.7C384.7,630.2,383.9,632.9,381.7,634.2z"/>
			</g>
		</g>
	</g>
	<g id="Perfs_copy">
		<path class="st6" d="M217.3,697.5h-18.6c-3.1,0-5.7-2.5-5.7-5.7v-9.6c0-3.1,2.5-5.7,5.7-5.7h18.6c3.1,0,5.7,2.5,5.7,5.7v9.6
			C223,695,220.5,697.5,217.3,697.5z"/>
		<path class="st6" d="M218.3,649.5h-18.6c-3.1,0-5.7-2.5-5.7-5.7v-9.6c0-3.1,2.5-5.7,5.7-5.7h18.6c3.1,0,5.7,2.5,5.7,5.7v9.6
			C224,647,221.5,649.5,218.3,649.5z"/>
		<path class="st6" d="M218.3,601.5h-18.6c-3.1,0-5.7-2.5-5.7-5.7v-9.6c0-3.1,2.5-5.7,5.7-5.7h18.6c3.1,0,5.7,2.5,5.7,5.7v9.6
			C224,599,221.5,601.5,218.3,601.5z"/>
		<path class="st6" d="M218.3,553.5h-18.6c-3.1,0-5.7-2.5-5.7-5.7v-9.6c0-3.1,2.5-5.7,5.7-5.7h18.6c3.1,0,5.7,2.5,5.7,5.7v9.6
			C224,551,221.5,553.5,218.3,553.5z"/>
		<path class="st6" d="M218.3,505.5h-18.6c-3.1,0-5.7-2.5-5.7-5.7v-9.6c0-3.1,2.5-5.7,5.7-5.7h18.6c3.1,0,5.7,2.5,5.7,5.7v9.6
			C224,503,221.5,505.5,218.3,505.5z"/>
		<path class="st6" d="M218.3,457.5h-18.6c-3.1,0-5.7-2.5-5.7-5.7v-9.6c0-3.1,2.5-5.7,5.7-5.7h18.6c3.1,0,5.7,2.5,5.7,5.7v9.6
			C224,455,221.5,457.5,218.3,457.5z"/>
		<path class="st6" d="M218.3,409.5h-18.6c-3.1,0-5.7-2.5-5.7-5.7v-9.6c0-3.1,2.5-5.7,5.7-5.7h18.6c3.1,0,5.7,2.5,5.7,5.7v9.6
			C224,407,221.5,409.5,218.3,409.5z"/>
	</g>
</g>
<g id="Screenplay">
	<g>
		
			<image style="overflow:visible;opacity:0.25;" width="487" height="558" xlink:href="F5D1EF1D.png"  transform="matrix(1 0 0 1 88 90.5)">
		</image>
		<g>
			<g>
				<linearGradient id="SVGID_4_" gradientUnits="userSpaceOnUse" x1="160.9821" y1="369.7527" x2="503" y2="369.7527">
					<stop  offset="0" style="stop-color:#E6E6E6"/>
					<stop  offset="1" style="stop-color:#FFFFFF"/>
				</linearGradient>
				<path class="st7" d="M503,323.5L310.8,576.1L161.7,310c-1.6-2.9-0.6-6.5,2.3-8.1l241.1-137.6c2.9-1.6,6.5-0.6,8.2,2.2L503,323.5
					z"/>
			</g>
		</g>
	</g>
	
		<rect x="197.2" y="263.5" transform="matrix(0.8725 -0.4886 0.4886 0.8725 -94.2073 173.1841)" class="st8" width="175.1" height="7.2"/>
	
		<rect x="204.3" y="271.7" transform="matrix(0.8725 -0.4886 0.4886 0.8725 -95.0396 186.3668)" class="st9" width="210.5" height="7.2"/>
	
		<rect x="211.4" y="287.5" transform="matrix(0.8725 -0.4886 0.4886 0.8725 -103.4222 185.8437)" class="st9" width="186" height="7.2"/>
	
		<rect x="302.5" y="300.5" transform="matrix(0.8725 -0.4886 0.4886 0.8725 -107.4349 196.5968)" class="st8" width="41" height="7.2"/>
	
		<rect x="290.6" y="311.3" transform="matrix(0.8725 -0.4886 0.4886 0.8725 -112.2322 199.8025)" class="st9" width="72.3" height="7.2"/>
	
		<rect x="297.8" y="328" transform="matrix(0.8725 -0.4886 0.4886 0.8725 -121.2475 198.6215)" class="st9" width="44.2" height="7.2"/>
	
		<rect x="323.3" y="337" transform="matrix(0.8725 -0.4886 0.4886 0.8725 -122.243 212.8052)" class="st8" width="46.6" height="7.2"/>
	
		<rect x="311.8" y="349.2" transform="matrix(0.8725 -0.4886 0.4886 0.8725 -128.0244 214.9873)" class="st9" width="72.3" height="7.2"/>
	
		<rect x="317.3" y="359" transform="matrix(0.8725 -0.4886 0.4886 0.8725 -132.1187 218.9241)" class="st9" width="72.3" height="7.2"/>
	
		<rect x="262.6" y="374.9" transform="matrix(0.8725 -0.4886 0.4886 0.8725 -138.0352 227.99)" class="st9" width="210.5" height="7.2"/>
	
		<rect x="267.4" y="385.1" transform="matrix(0.8725 -0.4886 0.4886 0.8725 -142.4106 231.6343)" class="st9" width="210.5" height="7.2"/>
	
		<rect x="273.6" y="394.5" transform="matrix(0.8725 -0.4886 0.4886 0.8725 -146.2237 235.8636)" class="st9" width="210.5" height="7.2"/>
	
		<rect x="289.3" y="446.7" transform="matrix(0.8725 -0.4886 0.4886 0.8725 -180.6876 208.216)" class="st9" width="38.6" height="7.2"/>
	
		<rect x="307.3" y="471.6" transform="matrix(0.8725 -0.4886 0.4886 0.8725 -187.8694 230.5995)" class="st9" width="81.1" height="7.2"/>
	
		<rect x="312.8" y="481.5" transform="matrix(0.8725 -0.4886 0.4886 0.8725 -191.9637 234.5363)" class="st9" width="81.1" height="7.2"/>
</g>
<g id="Layer_6">
</g>
<g id="F">
	<g id="Layer_12">
	</g>
	<g>
		
			<image style="overflow:visible;opacity:0.4;" width="469" height="439" xlink:href="F5D1EF1B.png"  transform="matrix(1 0 0 1 230 199.5)">
		</image>
		<g>
			<linearGradient id="SVGID_5_" gradientUnits="userSpaceOnUse" x1="282.65" y1="418.6357" x2="646.0771" y2="418.6357">
				<stop  offset="0" style="stop-color:#F7931E"/>
				<stop  offset="0.2654" style="stop-color:#DE6656"/>
				<stop  offset="0.616" style="stop-color:#BF2F99"/>
				<stop  offset="0.8703" style="stop-color:#AB0DC4"/>
				<stop  offset="1" style="stop-color:#A400D4"/>
			</linearGradient>
			<path class="st10" d="M315.5,585.8c-3,0-5.8-1.7-7.2-4.3l-24.8-46.9c-1.4-2.6-1.2-5.7,0.4-8.2l175.5-271.1c1.5-2.3,4-3.7,6.8-3.7
				H638c2.9,0,5.5,1.5,7,4c1.5,2.5,1.5,5.5,0.1,8.1l-34.4,60.8c-1.4,2.5-4.1,4.1-7.1,4.1h-98.8l-25.6,33h44.4c2.9,0,5.6,1.6,7.1,4.2
				l28.4,50.8c1.4,2.5,1.4,5.6-0.1,8.1c-1.5,2.5-4.1,4-7,4H431.1c0,0-0.1,0-0.1,0L322.1,582.3C320.6,584.5,318.1,585.8,315.5,585.8
				L315.5,585.8z"/>
			<path class="st11" d="M638,255.5c3.1,0,5.1,3.4,3.6,6.1l-34.4,60.8c-0.7,1.3-2.1,2.1-3.6,2.1H503l-0.1-0.1L471,365.5h52.6
				c1.5,0,2.9,0.8,3.6,2.1l28.4,50.8c1.5,2.7-0.4,6.1-3.6,6.1H431.1c-1.3,0-2.6,0.6-3.4,1.7L318.9,580c-0.8,1.2-2.1,1.7-3.4,1.7
				c-1.4,0-2.9-0.7-3.6-2.2l-24.8-46.9c-0.7-1.3-0.6-2.9,0.2-4.2l175.5-271.1c0.8-1.2,2.1-1.9,3.5-1.9H638 M638,247.5H466.2
				c-4.1,0-7.9,2.1-10.2,5.5L280.6,524.1c-2.4,3.7-2.6,8.4-0.5,12.2l24.8,46.9c2.1,4,6.2,6.5,10.7,6.5c3.9,0,7.6-1.9,9.9-5.1
				l107.7-152.2H552c4.3,0,8.2-2.2,10.4-6c2.2-3.7,2.2-8.2,0.1-12l-28.4-50.8c-2.1-3.8-6.2-6.2-10.6-6.2h-36.3l19.4-25h96.9
				c4.4,0,8.4-2.4,10.5-6.2l34.4-60.8c2.1-3.8,2.1-8.3-0.1-12.1C646.2,249.7,642.3,247.5,638,247.5L638,247.5z"/>
		</g>
	</g>
	<g id="Layer_9">
	</g>
	<linearGradient id="SVGID_6_" gradientUnits="userSpaceOnUse" x1="465" y1="290" x2="645" y2="290">
		<stop  offset="0" style="stop-color:#000000;stop-opacity:0.2"/>
		<stop  offset="0.216" style="stop-color:#3D1D29;stop-opacity:0.1568"/>
		<stop  offset="0.6041" style="stop-color:#A44F6F;stop-opacity:7.918086e-02"/>
		<stop  offset="0.8737" style="stop-color:#E66F9B;stop-opacity:2.525276e-02"/>
		<stop  offset="1" style="stop-color:#FF7BAC;stop-opacity:0"/>
	</linearGradient>
	<polygon class="st12" points="645,256.5 465,255.5 503,324.5 606,324.5 	"/>
	<linearGradient id="SVGID_7_" gradientUnits="userSpaceOnUse" x1="429" y1="395" x2="559" y2="395">
		<stop  offset="0" style="stop-color:#000000;stop-opacity:0.2"/>
		<stop  offset="0.216" style="stop-color:#3D1D29;stop-opacity:0.1568"/>
		<stop  offset="0.6041" style="stop-color:#A44F6F;stop-opacity:7.918086e-02"/>
		<stop  offset="0.8737" style="stop-color:#E66F9B;stop-opacity:2.525276e-02"/>
		<stop  offset="1" style="stop-color:#FF7BAC;stop-opacity:0"/>
	</linearGradient>
	<polygon class="st13" points="429,424.5 471,365.5 526,365.5 559,424.5 	"/>
</g>
<g id="Layershadow_8">
</g>
</svg>
