<?xml version="1.0" encoding="utf-8"?>
<!-- Generator: Adobe Illustrator 22.0.0, SVG Export Plug-In . SVG Version: 6.00 Build 0)  -->
<svg version="1.1" xmlns="http://www.w3.org/2000/svg" xmlns:xlink="http://www.w3.org/1999/xlink" x="0px" y="0px"
	 viewBox="0 0 800 800" style="enable-background:new 0 0 800 800;" xml:space="preserve">
<style type="text/css">
	.st0{display:none;}
	.st1{display:inline;fill:#1A1A1A;stroke:#FFFFFF;stroke-miterlimit:10;}
	.st2{fill:url(#SVGID_1_);}
	.st3{fill:#FFFFFF;fill-opacity:0.75;}
	.st4{display:inline;fill:#1A1A1A;}
	.st5{fill:#1A1A1A;}
	.st6{fill:#FFFFFF;}
	.st7{display:none;fill:#1A1A1A;}
	.st8{fill:none;}
	.st9{fill:url(#SVGID_4_);}
	.st10{fill:#B3B3B3;}
	.st11{fill:#CCCCCC;}
	.st12{fill:url(#SVGID_5_);}
	.st13{fill:url(#SVGID_6_);}
	.st14{fill:url(#SVGID_7_);}
</style>
<g id="Layer_13" class="st0">
	<rect x="-66.5" y="-121" class="st1" width="1241" height="1241"/>
</g>
<g id="Layer_1">
	<g id="Layer_10">
	</g>
	<g>
		<g>
			
				<image style="overflow:visible;opacity:0.4;" width="587" height="593" xlink:href="F5D1EF16.png"  transform="matrix(1 0 0 1 112 114.5)">
			</image>
			<path d="M648.4,253.5c-2.2-3.8-6.1-6-10.5-6H466.2c-2.1,0-4.1,0.5-5.8,1.5l-47.2-82.5c-1.6-2.9-5.3-3.9-8.2-2.2L164,301.9
				c-2.9,1.6-3.9,5.3-2.3,8.1l119.4,213.2l-0.6,0.9c-2.4,3.7-2.6,8.4-0.5,12.2l24.8,46.9c2.1,4,6.2,6.5,10.7,6.5c1,0,2-0.1,3-0.4
				l37.3,66.5c1.6,2.9,5.2,3.9,8.1,2.3l41.1-22.7L564.7,546l0,0l42.8-23.6c2.9-1.6,3.9-5.3,2.3-8.2l-48.7-86
				c0.5-0.6,0.9-1.1,1.3-1.8c2.2-3.7,2.2-8.2,0.1-12l-28.4-50.8c-2.1-3.8-6.2-6.2-10.6-6.2h-36.3l19.4-25h96.9
				c4.4,0,8.4-2.4,10.5-6.2l34.4-60.8C650.6,261.8,650.6,257.3,648.4,253.5z M465.1,255.7L465.1,255.7c-0.2,0.1-0.5,0.2-0.7,0.3v0
				C464.6,255.8,464.9,255.7,465.1,255.7z M545.3,432.5c0.8,0.4,1.4,1,1.9,1.8l3.8,6.7c1.2,2.2,0.4,5-1.8,6.2l-13.1,7.3
				c-2.2,1.2-5,0.4-6.2-1.8l-3.8-6.7c-1.2-2.2-0.4-5,1.8-6.2l13.1-7.3c0.1,0,0.1,0,0.2-0.1H545.3z M343.2,562.3l-3.3,1.8l5.3-7.4
				C346,558.8,345.2,561.2,343.2,562.3z M349,603.3c-2.2,1.2-5,0.4-6.2-1.8l-3.8-6.7c-1.2-2.2-0.4-5,1.8-6.2l13.1-7.3
				c2.2-1.2,5-0.4,6.2,1.8l3.8,6.7c1.2,2.2,0.4,5-1.8,6.2L349,603.3z M381.6,629.2l-13.1,7.3c-2.2,1.2-5,0.4-6.2-1.8l-3.8-6.7
				c-1.2-2.2-0.4-5,1.8-6.2l13.1-7.3c2.2-1.2,5-0.4,6.2,1.8l3.8,6.7C384.6,625.2,383.8,628,381.6,629.2z M585.6,501.2l3.8,6.7
				c1.2,2.2,0.4,5-1.8,6.2l-13.1,7.3c-2.2,1.2-5,0.4-6.2-1.8l-3.8-6.7c-1.2-2.2-0.4-5,1.8-6.2l13.1-7.3
				C581.5,498.2,584.3,499,585.6,501.2z M566,468l3.8,6.7c1.2,2.2,0.4,5-1.8,6.2l-13.1,7.3c-2.2,1.2-5,0.4-6.2-1.8l-3.8-6.7
				c-1.2-2.2-0.4-5,1.8-6.2l13.1-7.3C562,465,564.8,465.8,566,468z M523.6,365.5C523.6,365.5,523.6,365.5,523.6,365.5L523.6,365.5
				l-52.6,0l0,0H523.6z M502.9,324.4l-18,23.2L502.9,324.4L502.9,324.4z M638,255.5H466.2c0,0-0.1,0-0.1,0h0c0,0,0.1,0,0.1,0
				L638,255.5c1,0,2,0.4,2.7,1C639.9,255.9,639,255.5,638,255.5z"/>
		</g>
	</g>
</g>
<g id="Film_strip">
	<g id="Perfs">
		<linearGradient id="SVGID_1_" gradientUnits="userSpaceOnUse" x1="290" y1="512" x2="575" y2="512">
			<stop  offset="0" style="stop-color:#F7931E"/>
			<stop  offset="0.2654" style="stop-color:#DE6656"/>
			<stop  offset="0.616" style="stop-color:#BF2F99"/>
			<stop  offset="0.8703" style="stop-color:#AB0DC4"/>
			<stop  offset="1" style="stop-color:#A400D4"/>
		</linearGradient>
		<polygon class="st2" points="405,635.5 575,540.5 491,388.5 290,459.5 		"/>
		<polygon class="st3" points="405,635.5 571,542.5 498,395.5 303,457.5 		"/>
		<g id="Layer_11">
			<g>
				<defs>
					<polygon id="SVGID_2_" points="320,508.5 503,404.5 578,538.5 395,641.5 					"/>
				</defs>
				<clipPath id="SVGID_3_">
					<use xlink:href="#SVGID_2_"  style="overflow:visible;"/>
				</clipPath>
				<g transform="matrix(1 0 2.980232e-08 1 -3.051758e-05 -3.051758e-05)" style="clip-path:url(#SVGID_3_);">
					
						<image style="overflow:visible;" width="1365" height="752" xlink:href="F5D1EF1A.jpg"  transform="matrix(0.2185 -0.1224 0.1284 0.2292 275 510.5922)">
					</image>
				</g>
			</g>
		</g>
		<g class="st0">
			<path class="st4" d="M611.9,615.9l-0.4-0.7C611.6,615.4,611.8,615.7,611.9,615.9L611.9,615.9z"/>
			<path class="st4" d="M441.3,710.6l0.4,0.7l0,0C441.5,711,441.4,710.8,441.3,710.6z"/>
			<path class="st4" d="M521.3,473.3l-153.4,85.9c-4.6,2.6-10.6,0.9-13.2-3.7l18.8,33.6c-2.6-4.6-0.9-10.5,3.7-13.1l153.4-85.9
				c4.6-2.6,10.6-0.9,13.2,3.7L525,460.1C527.6,464.8,525.9,470.7,521.3,473.3z"/>
			<path class="st4" d="M473.5,388.6l-153.4,85.9c-4.6,2.6-10.6,0.9-13.2-3.7l17.7,31.5c-2.6-4.6-0.9-10.5,3.7-13.1l153.4-85.9
				c4.6-2.6,10.6-0.9,13.2,3.7l-17.7-31.5C479.8,380.1,478.2,386,473.5,388.6z"/>
		</g>
		<g>
			
				<image style="overflow:visible;opacity:0.5;" width="174" height="206" xlink:href="F5D1EF1A.png"  transform="matrix(1 0 0 1 455 358.5)">
			</image>
			<g>
				<path class="st5" d="M475.4,383.8l56-4.8l77,136c0.6,1,0.7,2.3,0.4,3.4c-0.3,1.2-1.1,2.1-2.1,2.7L565.3,544L475.4,383.8z
					 M581.6,497.4c-1,0-2.1,0.3-3,0.8l-13.1,7.3c-2.9,1.6-4,5.3-2.3,8.3l3.8,6.7c1.1,1.9,3.1,3.1,5.3,3.1c1,0,2.1-0.3,3-0.8
					l13.1-7.3c1.4-0.8,2.4-2.1,2.9-3.6c0.4-1.6,0.2-3.2-0.5-4.6l-3.8-6.7C585.8,498.6,583.8,497.4,581.6,497.4z M562,464.1
					c-1,0-2.1,0.3-3,0.8l-13.1,7.3c-2.9,1.6-4,5.3-2.3,8.3l3.8,6.7c1.1,1.9,3.1,3.1,5.3,3.1c1,0,2.1-0.3,3-0.8l13.1-7.3
					c1.4-0.8,2.4-2.1,2.9-3.6c0.4-1.6,0.2-3.2-0.5-4.6l-3.8-6.7C566.2,465.3,564.2,464.1,562,464.1z M543.2,430.5
					c-1,0-2.1,0.3-3,0.8l-13.1,7.3c-2.9,1.6-4,5.3-2.3,8.3l3.8,6.7c1.1,1.9,3.1,3.1,5.3,3.1c1,0,2.1-0.3,3-0.8l13.1-7.3
					c2.9-1.6,4-5.3,2.3-8.3l-3.8-6.7C547.4,431.7,545.4,430.5,543.2,430.5z M524.3,396.9c-1,0-2.1,0.3-3,0.8l-13.1,7.3
					c-1.4,0.8-2.4,2.1-2.9,3.6c-0.4,1.6-0.2,3.2,0.5,4.6l3.8,6.7c1.1,1.9,3.1,3.1,5.3,3.1c1,0,2.1-0.3,3-0.8l13.1-7.3
					c1.4-0.8,2.4-2.1,2.9-3.6c0.4-1.6,0.2-3.2-0.5-4.6l-3.8-6.7C528.6,398,526.5,396.9,524.3,396.9z"/>
				<path class="st6" d="M530.6,380.5l76.5,135.2c0.4,0.7,0.5,1.5,0.3,2.3c-0.2,0.8-0.7,1.4-1.4,1.8L565.9,542l-88-156.9
					L530.6,380.5 M515.1,424.5c1.3,0,2.6-0.3,3.7-1l13.1-7.3c1.8-1,3-2.6,3.6-4.5c0.5-1.9,0.3-4-0.7-5.8l-3.8-6.7
					c-1.3-2.4-3.9-3.9-6.6-3.9c-1.3,0-2.6,0.3-3.7,1l-13.1,7.3c-1.8,1-3,2.6-3.6,4.5c-0.5,1.9-0.3,4,0.7,5.8l3.8,6.7
					C509.8,423.1,512.3,424.5,515.1,424.5 M533.9,458.2c1.3,0,2.6-0.3,3.7-1l13.1-7.3c3.6-2,4.9-6.7,2.9-10.3l-3.8-6.7
					c-1.3-2.4-3.9-3.9-6.6-3.9c-1.3,0-2.6,0.3-3.7,1l-13.1,7.3c-1.8,1-3,2.6-3.6,4.5c-0.5,1.9-0.3,4,0.7,5.8l3.8,6.7
					C528.6,456.7,531.2,458.2,533.9,458.2 M552.8,491.8c1.3,0,2.6-0.3,3.7-1l13.1-7.3c1.8-1,3-2.6,3.6-4.5s0.3-4-0.7-5.8l-3.8-6.7
					c-1.3-2.4-3.9-3.9-6.6-3.9c-1.3,0-2.6,0.3-3.7,1l-13.1,7.3c-3.6,2-4.9,6.7-2.9,10.3l3.8,6.7C547.5,490.4,550,491.8,552.8,491.8
					 M572.3,525.1c1.3,0,2.6-0.3,3.7-1l13.1-7.3c1.8-1,3-2.6,3.6-4.5c0.5-1.9,0.3-4-0.7-5.8l-3.8-6.7c-1.3-2.4-3.9-3.9-6.6-3.9
					c-1.3,0-2.6,0.3-3.7,1l-13.1,7.3c-1.8,1-3,2.6-3.6,4.5s-0.3,4,0.7,5.8l3.8,6.7C567,523.6,569.6,525.1,572.3,525.1 M532.3,377.4
					l-59.3,5.1l91.7,163.6l42.8-23.6c2.9-1.6,3.9-5.3,2.3-8.2L532.3,377.4L532.3,377.4z M515.1,421.5c-1.6,0-3.2-0.8-4-2.3l-3.8-6.7
					c-1.2-2.2-0.4-5,1.8-6.2l13.1-7.3c0.7-0.4,1.5-0.6,2.2-0.6c1.6,0,3.2,0.8,4,2.3l3.8,6.7c1.2,2.2,0.4,5-1.8,6.2l-13.1,7.3
					C516.6,421.4,515.8,421.5,515.1,421.5L515.1,421.5z M533.9,455.2c-1.6,0-3.2-0.8-4-2.3l-3.8-6.7c-1.2-2.2-0.4-5,1.8-6.2
					l13.1-7.3c0.7-0.4,1.5-0.6,2.2-0.6c1.6,0,3.2,0.8,4,2.3l3.8,6.7c1.2,2.2,0.4,5-1.8,6.2l-13.1,7.3
					C535.4,455,534.7,455.2,533.9,455.2L533.9,455.2z M552.8,488.8c-1.6,0-3.2-0.8-4-2.3l-3.8-6.7c-1.2-2.2-0.4-5,1.8-6.2l13.1-7.3
					c0.7-0.4,1.5-0.6,2.2-0.6c1.6,0,3.2,0.8,4,2.3l3.8,6.7c1.2,2.2,0.4,5-1.8,6.2l-13.1,7.3C554.3,488.7,553.5,488.8,552.8,488.8
					L552.8,488.8z M572.3,522.1c-1.6,0-3.2-0.8-4-2.3l-3.8-6.7c-1.2-2.2-0.4-5,1.8-6.2l13.1-7.3c0.7-0.4,1.5-0.6,2.2-0.6
					c1.6,0,3.2,0.8,4,2.3l3.8,6.7c1.2,2.2,0.4,5-1.8,6.2l-13.1,7.3C573.8,521.9,573.1,522.1,572.3,522.1L572.3,522.1z"/>
			</g>
		</g>
		<path class="st7" d="M605.8,485.5l-80.5-142.1l-10.9-20.1l-51.1-90.9l-45.6,15.9l146,260.7L605.8,485.5z M585.3,477
			c1.2,2.2,0.4,5-1.8,6.2l-13.1,7.3c-2.2,1.2-5,0.4-6.2-1.8l-3.8-6.7c-1.2-2.2-0.4-5,1.8-6.2l13.1-7.3c2.2-1.2,5-0.4,6.2,1.8
			L585.3,477z M446.8,280.5c-1.2-2.2-0.4-5,1.8-6.2l13.1-7.3c2.2-1.2,5-0.4,6.2,1.8l3.8,6.7c1.2,2.2,0.4,5-1.8,6.2l-13.1,7.3
			c-2.2,1.2-5,0.4-6.2-1.8L446.8,280.5z M465.6,314.2c-1.2-2.2-0.4-5,1.8-6.2l13.1-7.3c2.2-1.2,5-0.4,6.2,1.8l3.8,6.7
			c1.2,2.2,0.4,5-1.8,6.2l-13.1,7.3c-2.2,1.2-5,0.4-6.2-1.8L465.6,314.2z M484.5,347.8c-1.2-2.2-0.4-5,1.8-6.2l13.1-7.3
			c2.2-1.2,5-0.4,6.2,1.8l3.8,6.7c1.2,2.2,0.4,5-1.8,6.2l-13.1,7.3c-2.2,1.2-5,0.4-6.2-1.8L484.5,347.8z M503.3,381.5
			c-1.2-2.2-0.4-5,1.8-6.2l13.1-7.3c2.2-1.2,5-0.4,6.2,1.8l3.8,6.7c1.2,2.2,0.4,5-1.8,6.2l-13.1,7.3c-2.2,1.2-5,0.4-6.2-1.8
			L503.3,381.5z M522.1,415.1c-1.2-2.2-0.4-5,1.8-6.2l13.1-7.3c2.2-1.2,5-0.4,6.2,1.8l3.8,6.7c1.2,2.2,0.4,5-1.8,6.2l-13.1,7.3
			c-2.2,1.2-5,0.4-6.2-1.8L522.1,415.1z M541,448.8c-1.2-2.2-0.4-5,1.8-6.2l13.1-7.3c2.2-1.2,5-0.4,6.2,1.8l3.8,6.7
			c1.2,2.2,0.4,5-1.8,6.2l-13.1,7.3c-2.2,1.2-5,0.4-6.2-1.8L541,448.8z"/>
		<g>
			
				<image style="overflow:visible;opacity:0.5;" width="174" height="204" xlink:href="F5D1EF1E.png"  transform="matrix(1 0 0 1 249 473.5)">
			</image>
			<g>
				<path class="st5" d="M361,657.4c-1.6,0-3.1-0.9-3.9-2.3l-87.7-156.3l56-4.8l77.5,141l-39.8,22
					C362.5,657.2,361.8,657.4,361,657.4L361,657.4z M375.6,612.4c-1,0-2.1,0.3-3,0.8l-13.1,7.3c-1.4,0.8-2.4,2.1-2.9,3.6
					c-0.4,1.6-0.2,3.2,0.5,4.6l3.8,6.7c1.1,1.9,3.1,3.1,5.3,3.1c1,0,2.1-0.3,3-0.8l13.1-7.3c2.9-1.6,4-5.3,2.3-8.3l-3.8-6.7
					C379.8,613.6,377.8,612.4,375.6,612.4z M356,579.1c-1,0-2.1,0.3-3,0.8l-13.1,7.3c-2.9,1.6-4,5.3-2.3,8.3l3.8,6.7
					c1.1,1.9,3.1,3.1,5.3,3.1c1,0,2.1-0.3,3-0.8l13.1-7.3c1.4-0.8,2.4-2.1,2.9-3.6c0.4-1.6,0.2-3.2-0.5-4.6l-3.8-6.7
					C360.2,580.3,358.2,579.1,356,579.1z M337.2,545.5c-1,0-2.1,0.3-3,0.8l-13.1,7.3c-2.9,1.6-4,5.3-2.3,8.3l3.8,6.7
					c1.1,1.9,3.1,3.1,5.3,3.1c1,0,2.1-0.3,3-0.8l13.1-7.3c2.9-1.6,4-5.3,2.3-8.3l-3.8-6.7C341.4,546.7,339.4,545.5,337.2,545.5z
					 M318.3,511.9c-1,0-2.1,0.3-3,0.8l-13.1,7.3c-2.9,1.6-4,5.3-2.3,8.3l3.8,6.7c1.1,1.9,3.1,3.1,5.3,3.1c1,0,2.1-0.3,3-0.8
					l13.1-7.3c1.4-0.8,2.4-2.1,2.9-3.6c0.4-1.6,0.2-3.2-0.5-4.6l-3.8-6.7C322.6,513,320.5,511.9,318.3,511.9z"/>
				<path class="st6" d="M324.6,495.5l76.3,138.8l-38.5,21.2c-0.5,0.2-0.9,0.4-1.4,0.4c-1.1,0-2.1-0.6-2.6-1.5l-86.5-154.3
					L324.6,495.5 M309.1,539.5c1.3,0,2.6-0.3,3.7-1l13.1-7.3c3.6-2,4.9-6.7,2.9-10.3l-3.8-6.7c-1.3-2.4-3.9-3.9-6.6-3.9
					c-1.3,0-2.6,0.3-3.7,1l-13.1,7.3c-1.8,1-3,2.6-3.6,4.5c-0.5,1.9-0.3,4,0.7,5.8l3.8,6.7C303.8,538.1,306.3,539.5,309.1,539.5
					 M327.9,573.2c1.3,0,2.6-0.3,3.7-1l13.1-7.3c3.6-2,4.9-6.7,2.9-10.3l-3.8-6.7c-1.3-2.4-3.9-3.9-6.6-3.9c-1.3,0-2.6,0.3-3.7,1
					l-13.1,7.3c-3.6,2-4.9,6.7-2.9,10.3l3.8,6.7C322.6,571.7,325.2,573.2,327.9,573.2 M346.8,606.8c1.3,0,2.6-0.3,3.7-1l13.1-7.3
					c1.8-1,3-2.6,3.6-4.5s0.3-4-0.7-5.8l-3.8-6.7c-1.3-2.4-3.9-3.9-6.6-3.9c-1.3,0-2.6,0.3-3.7,1l-13.1,7.3c-1.8,1-3,2.6-3.6,4.5
					s-0.3,4,0.7,5.8l3.8,6.7C341.5,605.4,344,606.8,346.8,606.8 M366.3,640.1c1.3,0,2.6-0.3,3.7-1l13.1-7.3c1.8-1,3-2.6,3.6-4.5
					c0.5-1.9,0.3-4-0.7-5.8l-3.8-6.7c-1.3-2.4-3.9-3.9-6.6-3.9c-1.3,0-2.6,0.3-3.7,1l-13.1,7.3c-1.8,1-3,2.6-3.6,4.5
					c-0.5,1.9-0.3,4,0.7,5.8l3.8,6.7C361,638.6,363.6,640.1,366.3,640.1 M326.3,492.4l-59.3,5.1l88.8,158.4c1.1,2,3.1,3.1,5.2,3.1
					c1,0,2-0.2,2.9-0.7l41.1-22.7L326.3,492.4L326.3,492.4z M309.1,536.5c-1.6,0-3.2-0.8-4-2.3l-3.8-6.7c-1.2-2.2-0.4-5,1.8-6.2
					l13.1-7.3c0.7-0.4,1.5-0.6,2.2-0.6c1.6,0,3.2,0.8,4,2.3l3.8,6.7c1.2,2.2,0.4,5-1.8,6.2l-13.1,7.3
					C310.6,536.4,309.8,536.5,309.1,536.5L309.1,536.5z M327.9,570.2c-1.6,0-3.2-0.8-4-2.3l-3.8-6.7c-1.2-2.2-0.4-5,1.8-6.2
					l13.1-7.3c0.7-0.4,1.5-0.6,2.2-0.6c1.6,0,3.2,0.8,4,2.3l3.8,6.7c1.2,2.2,0.4,5-1.8,6.2l-13.1,7.3
					C329.4,570,328.7,570.2,327.9,570.2L327.9,570.2z M346.8,603.8c-1.6,0-3.2-0.8-4-2.3l-3.8-6.7c-1.2-2.2-0.4-5,1.8-6.2l13.1-7.3
					c0.7-0.4,1.5-0.6,2.2-0.6c1.6,0,3.2,0.8,4,2.3l3.8,6.7c1.2,2.2,0.4,5-1.8,6.2l-13.1,7.3C348.3,603.7,347.5,603.8,346.8,603.8
					L346.8,603.8z M366.3,637.1c-1.6,0-3.2-0.8-4-2.3l-3.8-6.7c-1.2-2.2-0.4-5,1.8-6.2l13.1-7.3c0.7-0.4,1.5-0.6,2.2-0.6
					c1.6,0,3.2,0.8,4,2.3l3.8,6.7c1.2,2.2,0.4,5-1.8,6.2l-13.1,7.3C367.8,636.9,367.1,637.1,366.3,637.1L366.3,637.1z"/>
			</g>
		</g>
	</g>
	<g id="Perfs_copy">
		<path class="st8" d="M217.3,697.5h-18.6c-3.1,0-5.7-2.5-5.7-5.7v-9.6c0-3.1,2.5-5.7,5.7-5.7h18.6c3.1,0,5.7,2.5,5.7,5.7v9.6
			C223,695,220.5,697.5,217.3,697.5z"/>
		<path class="st8" d="M218.3,649.5h-18.6c-3.1,0-5.7-2.5-5.7-5.7v-9.6c0-3.1,2.5-5.7,5.7-5.7h18.6c3.1,0,5.7,2.5,5.7,5.7v9.6
			C224,647,221.5,649.5,218.3,649.5z"/>
		<path class="st8" d="M218.3,601.5h-18.6c-3.1,0-5.7-2.5-5.7-5.7v-9.6c0-3.1,2.5-5.7,5.7-5.7h18.6c3.1,0,5.7,2.5,5.7,5.7v9.6
			C224,599,221.5,601.5,218.3,601.5z"/>
		<path class="st8" d="M218.3,553.5h-18.6c-3.1,0-5.7-2.5-5.7-5.7v-9.6c0-3.1,2.5-5.7,5.7-5.7h18.6c3.1,0,5.7,2.5,5.7,5.7v9.6
			C224,551,221.5,553.5,218.3,553.5z"/>
		<path class="st8" d="M218.3,505.5h-18.6c-3.1,0-5.7-2.5-5.7-5.7v-9.6c0-3.1,2.5-5.7,5.7-5.7h18.6c3.1,0,5.7,2.5,5.7,5.7v9.6
			C224,503,221.5,505.5,218.3,505.5z"/>
		<path class="st8" d="M218.3,457.5h-18.6c-3.1,0-5.7-2.5-5.7-5.7v-9.6c0-3.1,2.5-5.7,5.7-5.7h18.6c3.1,0,5.7,2.5,5.7,5.7v9.6
			C224,455,221.5,457.5,218.3,457.5z"/>
		<path class="st8" d="M218.3,409.5h-18.6c-3.1,0-5.7-2.5-5.7-5.7v-9.6c0-3.1,2.5-5.7,5.7-5.7h18.6c3.1,0,5.7,2.5,5.7,5.7v9.6
			C224,407,221.5,409.5,218.3,409.5z"/>
	</g>
</g>
<g id="Screenplay">
	<g>
		
			<image style="overflow:visible;opacity:0.25;" width="487" height="558" xlink:href="F5D1EF1D.png"  transform="matrix(1 0 0 1 88 90.5)">
		</image>
		<g>
			<g>
				<linearGradient id="SVGID_4_" gradientUnits="userSpaceOnUse" x1="160.9821" y1="369.7527" x2="503" y2="369.7527">
					<stop  offset="0" style="stop-color:#E6E6E6"/>
					<stop  offset="1" style="stop-color:#FFFFFF"/>
				</linearGradient>
				<path class="st9" d="M503,323.5L310.8,576.1L161.7,310c-1.6-2.9-0.6-6.5,2.3-8.1l241.1-137.6c2.9-1.6,6.5-0.6,8.2,2.2L503,323.5
					z"/>
			</g>
		</g>
	</g>
	
		<rect x="197.2" y="263.5" transform="matrix(0.8725 -0.4886 0.4886 0.8725 -94.2073 173.1841)" class="st10" width="175.1" height="7.2"/>
	
		<rect x="204.3" y="271.7" transform="matrix(0.8725 -0.4886 0.4886 0.8725 -95.0396 186.3668)" class="st11" width="210.5" height="7.2"/>
	
		<rect x="211.4" y="287.5" transform="matrix(0.8725 -0.4886 0.4886 0.8725 -103.4222 185.8437)" class="st11" width="186" height="7.2"/>
	
		<rect x="302.5" y="300.5" transform="matrix(0.8725 -0.4886 0.4886 0.8725 -107.4349 196.5968)" class="st10" width="41" height="7.2"/>
	
		<rect x="290.6" y="311.3" transform="matrix(0.8725 -0.4886 0.4886 0.8725 -112.2322 199.8025)" class="st11" width="72.3" height="7.2"/>
	
		<rect x="297.8" y="328" transform="matrix(0.8725 -0.4886 0.4886 0.8725 -121.2475 198.6215)" class="st11" width="44.2" height="7.2"/>
	
		<rect x="323.3" y="337" transform="matrix(0.8725 -0.4886 0.4886 0.8725 -122.243 212.8052)" class="st10" width="46.6" height="7.2"/>
	
		<rect x="311.8" y="349.2" transform="matrix(0.8725 -0.4886 0.4886 0.8725 -128.0244 214.9873)" class="st11" width="72.3" height="7.2"/>
	
		<rect x="317.3" y="359" transform="matrix(0.8725 -0.4886 0.4886 0.8725 -132.1187 218.9241)" class="st11" width="72.3" height="7.2"/>
	
		<rect x="262.6" y="374.9" transform="matrix(0.8725 -0.4886 0.4886 0.8725 -138.0352 227.99)" class="st11" width="210.5" height="7.2"/>
	
		<rect x="267.4" y="385.1" transform="matrix(0.8725 -0.4886 0.4886 0.8725 -142.4106 231.6343)" class="st11" width="210.5" height="7.2"/>
	
		<rect x="273.6" y="394.5" transform="matrix(0.8725 -0.4886 0.4886 0.8725 -146.2237 235.8636)" class="st11" width="210.5" height="7.2"/>
	
		<rect x="289.3" y="446.7" transform="matrix(0.8725 -0.4886 0.4886 0.8725 -180.6876 208.216)" class="st11" width="38.6" height="7.2"/>
	
		<rect x="307.3" y="471.6" transform="matrix(0.8725 -0.4886 0.4886 0.8725 -187.8694 230.5995)" class="st11" width="81.1" height="7.2"/>
	
		<rect x="312.8" y="481.5" transform="matrix(0.8725 -0.4886 0.4886 0.8725 -191.9637 234.5363)" class="st11" width="81.1" height="7.2"/>
</g>
<g id="Layer_6">
</g>
<g id="F">
	<g id="Layer_12">
	</g>
	<g>
		
			<image style="overflow:visible;opacity:0.4;" width="469" height="439" xlink:href="F5D1EF1B.png"  transform="matrix(1 0 0 1 230 199.5)">
		</image>
		<g>
			<linearGradient id="SVGID_5_" gradientUnits="userSpaceOnUse" x1="282.65" y1="418.6357" x2="646.0771" y2="418.6357">
				<stop  offset="0" style="stop-color:#F7931E"/>
				<stop  offset="0.2654" style="stop-color:#DE6656"/>
				<stop  offset="0.616" style="stop-color:#BF2F99"/>
				<stop  offset="0.8703" style="stop-color:#AB0DC4"/>
				<stop  offset="1" style="stop-color:#A400D4"/>
			</linearGradient>
			<path class="st12" d="M315.5,585.8c-3,0-5.8-1.7-7.2-4.3l-24.8-46.9c-1.4-2.6-1.2-5.7,0.4-8.2l175.5-271.1c1.5-2.3,4-3.7,6.8-3.7
				H638c2.9,0,5.5,1.5,7,4c1.5,2.5,1.5,5.5,0.1,8.1l-34.4,60.8c-1.4,2.5-4.1,4.1-7.1,4.1h-98.8l-25.6,33h44.4c2.9,0,5.6,1.6,7.1,4.2
				l28.4,50.8c1.4,2.5,1.4,5.6-0.1,8.1c-1.5,2.5-4.1,4-7,4H431.1c0,0-0.1,0-0.1,0L322.1,582.3C320.6,584.5,318.1,585.8,315.5,585.8
				L315.5,585.8z"/>
			<path class="st6" d="M638,255.5c3.1,0,5.1,3.4,3.6,6.1l-34.4,60.8c-0.7,1.3-2.1,2.1-3.6,2.1H503l-0.1-0.1L471,365.5h52.6
				c1.5,0,2.9,0.8,3.6,2.1l28.4,50.8c1.5,2.7-0.4,6.1-3.6,6.1H431.1c-1.3,0-2.6,0.6-3.4,1.7L318.9,580c-0.8,1.2-2.1,1.7-3.4,1.7
				c-1.4,0-2.9-0.7-3.6-2.2l-24.8-46.9c-0.7-1.3-0.6-2.9,0.2-4.2l175.5-271.1c0.8-1.2,2.1-1.9,3.5-1.9H638 M638,247.5H466.2
				c-4.1,0-7.9,2.1-10.2,5.5L280.6,524.1c-2.4,3.7-2.6,8.4-0.5,12.2l24.8,46.9c2.1,4,6.2,6.5,10.7,6.5c3.9,0,7.6-1.9,9.9-5.1
				l107.7-152.2H552c4.3,0,8.2-2.2,10.4-6c2.2-3.7,2.2-8.2,0.1-12l-28.4-50.8c-2.1-3.8-6.2-6.2-10.6-6.2h-36.3l19.4-25h96.9
				c4.4,0,8.4-2.4,10.5-6.2l34.4-60.8c2.1-3.8,2.1-8.3-0.1-12.1C646.2,249.7,642.3,247.5,638,247.5L638,247.5z"/>
		</g>
	</g>
	<g id="Layer_9">
	</g>
	<linearGradient id="SVGID_6_" gradientUnits="userSpaceOnUse" x1="465" y1="290" x2="645" y2="290">
		<stop  offset="0" style="stop-color:#000000;stop-opacity:0.2"/>
		<stop  offset="0.216" style="stop-color:#3D1D29;stop-opacity:0.1568"/>
		<stop  offset="0.6041" style="stop-color:#A44F6F;stop-opacity:7.918086e-02"/>
		<stop  offset="0.8737" style="stop-color:#E66F9B;stop-opacity:2.525276e-02"/>
		<stop  offset="1" style="stop-color:#FF7BAC;stop-opacity:0"/>
	</linearGradient>
	<polygon class="st13" points="645,256.5 465,255.5 503,324.5 606,324.5 	"/>
	<linearGradient id="SVGID_7_" gradientUnits="userSpaceOnUse" x1="429" y1="395" x2="559" y2="395">
		<stop  offset="0" style="stop-color:#000000;stop-opacity:0.2"/>
		<stop  offset="0.216" style="stop-color:#3D1D29;stop-opacity:0.1568"/>
		<stop  offset="0.6041" style="stop-color:#A44F6F;stop-opacity:7.918086e-02"/>
		<stop  offset="0.8737" style="stop-color:#E66F9B;stop-opacity:2.525276e-02"/>
		<stop  offset="1" style="stop-color:#FF7BAC;stop-opacity:0"/>
	</linearGradient>
	<polygon class="st14" points="429,424.5 471,365.5 526,365.5 559,424.5 	"/>
</g>
<g id="F_copy">
	<g id="Layer_12_copy">
	</g>
	<g id="Layer_9_copy">
	</g>
</g>
</svg>
