<?xml version="1.0" encoding="iso-8859-1"?>
<!-- Generator: Adobe Illustrator 16.0.0, SVG Export Plug-In . SVG Version: 6.00 Build 0)  -->
<!DOCTYPE svg PUBLIC "-//W3C//DTD SVG 1.1//EN" "http://www.w3.org/Graphics/SVG/1.1/DTD/svg11.dtd">
<svg version="1.1" id="Capa_1" xmlns="http://www.w3.org/2000/svg" xmlns:xlink="http://www.w3.org/1999/xlink" x="0px" y="0px"
	 width="95px" height="95px" viewBox="0 0 95 95" style="enable-background:new 0 0 95 95;" xml:space="preserve">
<g>
	<g>
		<path style="fill:#333333;" d="M60,23V2c0-1.105-0.896-2-2-2H37c-1.104,0-2,0.895-2,2v21c0,1.105,0.896,2,2,2h21C59.104,25,60,24.105,60,23z"/>
		<path style="fill:#333333;" d="M60,58V37c0-1.105-0.896-2-2-2H37c-1.104,0-2,0.895-2,2v21c0,1.105,0.896,2,2,2h21C59.104,60,60,59.105,60,58z"/>
		<path style="fill:#333333;" d="M60,93V72c0-1.105-0.896-2-2-2H37c-1.104,0-2,0.895-2,2v21c0,1.105,0.896,2,2,2h21C59.104,95,60,94.105,60,93z"/>
	</g>
</g>
<g>
</g>
<g>
</g>
<g>
</g>
<g>
</g>
<g>
</g>
<g>
</g>
<g>
</g>
<g>
</g>
<g>
</g>
<g>
</g>
<g>
</g>
<g>
</g>
<g>
</g>
<g>
</g>
<g>
</g>
</svg>
