<?xml version="1.0" encoding="iso-8859-1"?>
<!-- Generator: Adobe Illustrator 16.0.0, SVG Export Plug-In . SVG Version: 6.00 Build 0)  -->
<!DOCTYPE svg PUBLIC "-//W3C//DTD SVG 1.1//EN" "http://www.w3.org/Graphics/SVG/1.1/DTD/svg11.dtd">
<svg version="1.1" id="Capa_1" xmlns="http://www.w3.org/2000/svg" xmlns:xlink="http://www.w3.org/1999/xlink" x="0px" y="0px"
	 width="522.781px" height="522.782px" viewBox="0 0 522.781 522.782" style="enable-background:new 0 0 522.781 522.782;"
	 xml:space="preserve">
<g>
	<g>
		<path style="fill:#333333;" d="M512.703,455.395l-75.353-75.2c-7.191-7.19-16.983-10.557-26.469-10.098l-36.262-36.261
			c61.735-81.625,55.463-198.365-18.896-272.799C274.405-20.282,142.443-20.282,61.124,61.19
			c-81.473,81.472-81.473,213.282-0.153,294.601c74.435,74.435,191.174,80.631,272.799,18.896l36.261,36.262
			c-0.459,9.485,2.907,19.277,10.098,26.469l75.2,75.199c13.464,13.464,35.419,13.464,48.883,0l8.339-8.339
			C526.167,490.814,526.167,469.012,512.703,455.395z M310.666,310.733c-56.457,56.457-148.18,56.61-204.637,0.153
			s-56.457-148.027,0.153-204.638c56.457-56.457,148.181-56.61,204.638-0.153S367.047,254.123,310.666,310.733z"/>
		<path style="fill:#333333;" d="M265.072,186.727h-34.119v-34.119c0-12.316-9.945-22.262-22.108-22.262h-0.229c-12.164,0-22.108,9.945-22.108,22.262
			v34.119h-34.119c-12.316,0-22.261,9.945-22.261,22.109v0.153c0,12.164,9.945,22.108,22.261,22.108h34.119v34.119
			c0,12.317,9.945,22.262,22.108,22.262h0.153c12.163,0,22.108-9.944,22.108-22.262v-34.119h34.119
			c12.316,0,22.262-9.945,22.262-22.108v-0.153C287.41,196.672,277.466,186.727,265.072,186.727z"/>
	</g>
</g>
<g>
</g>
<g>
</g>
<g>
</g>
<g>
</g>
<g>
</g>
<g>
</g>
<g>
</g>
<g>
</g>
<g>
</g>
<g>
</g>
<g>
</g>
<g>
</g>
<g>
</g>
<g>
</g>
<g>
</g>
</svg>
