<?xml version="1.0" encoding="iso-8859-1"?>
<!-- Generator: Adobe Illustrator 16.0.4, SVG Export Plug-In . SVG Version: 6.00 Build 0)  -->
<!DOCTYPE svg PUBLIC "-//W3C//DTD SVG 1.1//EN" "http://www.w3.org/Graphics/SVG/1.1/DTD/svg11.dtd">
<svg version="1.1" id="Capa_1" xmlns="http://www.w3.org/2000/svg" xmlns:xlink="http://www.w3.org/1999/xlink" x="0px" y="0px"
	 width="64px" height="64px" viewBox="0 0 64 64" style="enable-background:new 0 0 64 64;" xml:space="preserve">
<g>
	<g id="circle_2_">
		<g>
			<path style="fill:#333333;" d="M33.475,36.652c-0.781,0.781-2.047,0.781-2.828,0l-1.58-1.58L22.985,41h18.102l-6.08-5.879L33.475,36.652z M44.206,23
				H19.891L32,35L44.206,23z M18,24.006V41h2.061l7.528-7.405L18,24.006z M44.061,41H46V24.128l-9.468,9.467L44.061,41z M32,0
				C14.327,0,0,14.327,0,32s14.327,32,32,32s32-14.327,32-32S49.673,0,32,0z M48,41c0,1.104-0.896,2-2,2H18c-1.104,0-2-0.896-2-2V23
				c0-1.104,0.896-2,2-2h28c1.104,0,2,0.896,2,2V41z"/>
		</g>
	</g>
</g>
<g>
</g>
<g>
</g>
<g>
</g>
<g>
</g>
<g>
</g>
<g>
</g>
<g>
</g>
<g>
</g>
<g>
</g>
<g>
</g>
<g>
</g>
<g>
</g>
<g>
</g>
<g>
</g>
<g>
</g>
</svg>
