<svg xmlns="http://www.w3.org/2000/svg" viewBox="0 0 24 24" style="pointer-events: none; display: block;"><g id="sync-disabled"><path  style="fill:#333333;" d="M10,6.3V4.3c-0.8,0.2-1.5,0.5-2.2,1l1.5,1.5C9.5,6.6,9.7,6.4,10,6.3z M2.9,5.4l2.4,2.4C4.5,9,4,10.4,4,12c0,2.2,0.9,4.2,2.4,5.6L4,20h6v-6l-2.2,2.2C6.7,15.2,6,13.7,6,12c0-1,0.2-1.9,0.7-2.8l8.1,8.1c-0.2,0.1-0.5,0.2-0.8,0.3v2.1c0.8-0.2,1.5-0.5,2.2-1l2.4,2.4l1.3-1.3L4.1,4.1L2.9,5.4z M20,4h-6v6l2.2-2.2C17.3,8.8,18,10.3,18,12c0,1-0.2,1.9-0.7,2.8l1.5,1.5C19.5,15,20,13.6,20,12c0-2.2-0.9-4.2-2.4-5.6L20,4z"></path></g></svg>