<?xml version="1.0" encoding="iso-8859-1"?>
<!-- Generator: Adobe Illustrator 16.0.0, SVG Export Plug-In . SVG Version: 6.00 Build 0)  -->
<!DOCTYPE svg PUBLIC "-//W3C//DTD SVG 1.1//EN" "http://www.w3.org/Graphics/SVG/1.1/DTD/svg11.dtd">
<svg version="1.1" id="Layer_1" xmlns="http://www.w3.org/2000/svg" xmlns:xlink="http://www.w3.org/1999/xlink" x="0px" y="0px"
	 width="36px" height="36px" viewBox="0 0 36 36" style="enable-background:new 0 0 36 36;" xml:space="preserve">
<g>
	<path style="fill:#333333;" d="M22.724,8.446l-3.909,3.909c-0.225,0.226-0.592,0.226-0.818,0l-0.056-0.057V9.42
		C13.22,9.75,9.48,13.693,9.48,18.496c0,3.373,1.851,6.454,4.833,8.04c0.751,0.4,1.036,1.333,0.637,2.086
		c-0.4,0.752-1.333,1.037-2.085,0.637c-3.99-2.123-6.469-6.247-6.469-10.763c0-6.504,5.123-11.834,11.545-12.168V3.776l0.056-0.056
		c0.226-0.226,0.593-0.226,0.818,0l3.909,3.908C22.95,7.854,22.95,8.221,22.724,8.446z"/>
	<path style="fill:#333333;" d="M20.497,32.618l-3.908-3.908c-0.226-0.226-0.226-0.592,0-0.818l3.908-3.908
		c0.226-0.226,0.593-0.226,0.819,0l0.055,0.057l0.001,2.877c4.72-0.329,8.461-4.272,8.461-9.075c0-3.373-1.852-6.454-4.833-8.04
		c-0.752-0.4-1.037-1.334-0.638-2.086c0.401-0.752,1.335-1.038,2.087-0.637c3.989,2.123,6.468,6.247,6.468,10.763
		c0,6.504-5.123,11.834-11.545,12.167v2.551l-0.056,0.057C21.09,32.844,20.723,32.844,20.497,32.618z"/>
</g>
</svg>
