<?xml version="1.0" encoding="utf-8"?>
<!-- Generator: Adobe Illustrator 22.0.0, SVG Export Plug-In . SVG Version: 6.00 Build 0)  -->
<svg version="1.1" xmlns="http://www.w3.org/2000/svg" xmlns:xlink="http://www.w3.org/1999/xlink" x="0px" y="0px"
	 viewBox="0 0 526.1667 511.5869" style="enable-background:new 0 0 526.1667 511.5869;" xml:space="preserve">
<style type="text/css">
	.st0{display:none;}
	.st1{display:inline;fill:#1A1A1A;}
	.st2{display:inline;}
	.st3{fill:#F2F2F2;}
	.st4{clip-path:url(#SVGID_2_);}
	.st5{clip-path:url(#SVGID_4_);}
	.st6{clip-path:url(#SVGID_6_);fill:#F2F2F2;}
	.st7{clip-path:url(#SVGID_6_);fill:#999999;}
	.st8{clip-path:url(#SVGID_6_);fill:#CCCCCC;}
	.st9{clip-path:url(#SVGID_8_);}
	.st10{clip-path:url(#SVGID_10_);}
	.st11{clip-path:url(#SVGID_12_);}
	.st12{opacity:0.5;clip-path:url(#SVGID_16_);}
	.st13{clip-path:url(#SVGID_18_);}
	.st14{clip-path:url(#SVGID_12_);fill:#F2F2F2;}
	.st15{clip-path:url(#SVGID_26_);fill:#333333;}
	.st16{opacity:0.5;clip-path:url(#SVGID_26_);}
	.st17{clip-path:url(#SVGID_28_);fill:#999999;}
	.st18{clip-path:url(#SVGID_30_);fill:url(#SVGID_31_);}
	.st19{clip-path:url(#SVGID_33_);fill:none;stroke:#F2F2F2;stroke-width:6.8099;stroke-miterlimit:10;}
	.st20{display:inline;fill:#FFFFFF;stroke:#000000;stroke-miterlimit:10;}
	.st21{fill:url(#SVGID_34_);}
	.st22{fill:url(#SVGID_35_);}
	.st23{fill:url(#SVGID_36_);}
	.st24{fill:url(#SVGID_37_);}
	.st25{fill:#FFFFFF;}
	.st26{fill:none;stroke:#000000;stroke-miterlimit:10;}
</style>
<g id="Layer_5" class="st0">
	<rect x="-180.5" y="-69.6667" class="st1" width="896" height="740"/>
</g>
<g id="Layer_1">
	<g class="st0">
		
			<image style="display:inline;overflow:visible;opacity:0.6;" width="484" height="534" xlink:href="5FCBC1EB.png"  transform="matrix(1 0 0 1 -10.5 -12.6667)">
		</image>
		<g class="st2">
			<path class="st3" d="M433.423,359.0839l-216.8461,125c-3.8263,2.2091-8.7191,0.8981-10.9282-2.9282L142.5,369.3333l-7-26
				L26.6487,152.5109c-2.2091-3.8263-0.8981-8.7191,2.9282-10.9282l200.8461-117c3.8263-2.2091,8.7191-0.8981,10.9282,2.9282
				L278.5,92.3333l-6,115l79,3l84.8513,137.8224C438.5604,351.9821,437.2494,356.8748,433.423,359.0839z"/>
		</g>
	</g>
	<g>
		<defs>
			<polygon id="SVGID_1_" points="119.5,400.3333 209.5,515.3333 543.5,415.3333 266.5,203.3333 373.5,36.3333 201.5,-107.6667 
				-104.5,169.3333 			"/>
		</defs>
		<clipPath id="SVGID_2_">
			<use xlink:href="#SVGID_1_"  style="overflow:visible;"/>
		</clipPath>
		<g class="st4">
			<g>
				<defs>
					
						<rect id="SVGID_3_" x="90.8675" y="57.3116" transform="matrix(0.866 -0.5 0.5 0.866 -89.8494 141.6338)" width="257" height="362.333"/>
				</defs>
				<clipPath id="SVGID_4_">
					<use xlink:href="#SVGID_3_"  style="overflow:visible;"/>
				</clipPath>
				<g class="st5">
					<defs>
						
							<rect id="SVGID_5_" x="90.8675" y="57.3116" transform="matrix(0.866 -0.5 0.5 0.866 -89.8494 141.6338)" width="257" height="362.333"/>
					</defs>
					<clipPath id="SVGID_6_">
						<use xlink:href="#SVGID_5_"  style="overflow:visible;"/>
					</clipPath>
					<path class="st6" d="M414.1402,334.8343l-207.8461,120c-3.8261,2.209-8.7192,0.8979-10.9282-2.9282l-173-299.6448
						c-2.209-3.8261-0.8979-8.7192,2.9282-10.9282l207.8461-120c3.8261-2.209,8.7192-0.8979,10.9282,2.9282l173,299.6448
						C419.2774,327.7322,417.9663,332.6253,414.1402,334.8343"/>
					
						<rect x="64.9638" y="120.4923" transform="matrix(0.866 -0.5 0.5 0.866 -44.7673 81.9107)" class="st7" width="131" height="8"/>
					
						<rect x="71.2173" y="125.8308" transform="matrix(0.866 -0.5 0.5 0.866 -43.8523 96.0027)" class="st8" width="172" height="8"/>
					
						<rect x="79.557" y="142.9551" transform="matrix(0.866 -0.5 0.5 0.866 -52.6369 97.4668)" class="st8" width="152" height="8"/>
					
						<rect x="146.2173" y="153.5436" transform="matrix(0.866 -0.5 0.5 0.866 -55.5651 107.7155)" class="st7" width="54" height="8"/>
					
						<rect x="135.2173" y="165.6679" transform="matrix(0.866 -0.5 0.5 0.866 -60.6894 112.8398)" class="st8" width="90" height="8"/>
					
						<rect x="142.8202" y="180.0423" transform="matrix(0.866 -0.5 0.5 0.866 -67.4609 116.3171)" class="st8" width="81" height="8"/>
					
						<rect x="170.2221" y="197.1308" transform="matrix(0.866 -0.5 0.5 0.866 -75.1474 121.8075)" class="st7" width="39" height="8"/>
					
						<rect x="158.2173" y="205.5051" transform="matrix(0.866 -0.5 0.5 0.866 -77.5266 129.677)" class="st8" width="90" height="8"/>
					
						<rect x="166.825" y="223.6295" transform="matrix(0.866 -0.5 0.5 0.866 -87.0433 130.4091)" class="st8" width="66" height="8"/>
					
						<rect x="134.0833" y="232.7179" transform="matrix(0.866 -0.5 0.5 0.866 -88.8734 141.7558)" class="st8" width="172" height="8"/>
					
						<rect x="141.0833" y="244.8423" transform="matrix(0.866 -0.5 0.5 0.866 -93.9977 146.8802)" class="st8" width="172" height="8"/>
					
						<rect x="149.1551" y="260.9666" transform="matrix(0.866 -0.5 0.5 0.866 -102.0503 149.0764)" class="st8" width="156" height="8"/>
					
						<rect x="157.0833" y="272.5551" transform="matrix(0.866 -0.5 0.5 0.866 -105.7106 158.593)" class="st8" width="172" height="8"/>
					
						<rect x="166.4279" y="293.4294" transform="matrix(0.866 -0.5 0.5 0.866 -117.2404 157.3119)" class="st8" width="137" height="8"/>
					
						<rect x="174.1551" y="304.2679" transform="matrix(0.866 -0.5 0.5 0.866 -120.3516 167.3776)" class="st7" width="156" height="8"/>
					
						<rect x="180.0833" y="312.3922" transform="matrix(0.866 -0.5 0.5 0.866 -122.5477 175.4302)" class="st8" width="172" height="8"/>
					
						<rect x="187.0833" y="324.5166" transform="matrix(0.866 -0.5 0.5 0.866 -127.6721 180.5545)" class="st8" width="172" height="8"/>
					
						<rect x="254.2173" y="340.6051" transform="matrix(0.866 -0.5 0.5 0.866 -134.6266 186.777)" class="st7" width="54" height="8"/>
					
						<rect x="243.2173" y="352.7294" transform="matrix(0.866 -0.5 0.5 0.866 -139.7509 191.9013)" class="st8" width="90" height="8"/>
					
						<rect x="250.8202" y="367.1038" transform="matrix(0.866 -0.5 0.5 0.866 -146.5224 195.3786)" class="st8" width="81" height="8"/>
				</g>
			</g>
		</g>
	</g>
	<g>
		<defs>
			<polygon id="SVGID_7_" points="110.5,421.3333 225.5,235.3333 457.5,234.3333 496.5,421.3333 209.5,503.3333 			"/>
		</defs>
		<clipPath id="SVGID_8_">
			<use xlink:href="#SVGID_7_"  style="overflow:visible;"/>
		</clipPath>
		<g class="st9">
			<g>
				<defs>
					
						<rect id="SVGID_9_" x="99.3217" y="86.4113" transform="matrix(0.866 -0.5 0.5 0.866 -101.7207 153.6008)" width="272.882" height="360.4053"/>
				</defs>
				<clipPath id="SVGID_10_">
					<use xlink:href="#SVGID_9_"  style="overflow:visible;"/>
				</clipPath>
				<g class="st10">
					<defs>
						
							<rect id="SVGID_11_" x="99.3217" y="86.4113" transform="matrix(0.866 -0.5 0.5 0.866 -101.7207 153.6008)" width="272.882" height="360.4053"/>
					</defs>
					<clipPath id="SVGID_12_">
						<use xlink:href="#SVGID_11_"  style="overflow:visible;"/>
					</clipPath>
					<g class="st11">
						<defs>
							<path id="SVGID_13_" d="M386.2534,356.6523l-4.8616-8.4205c-1.0739-1.8601-0.4034-4.258,1.4966-5.355l14.629-8.446
								c1.9018-1.098,4.3137-0.4797,5.3876,1.3804l4.8616,8.4205c1.0739,1.8601,0.4034,4.258-1.4984,5.356l-14.629,8.446
								C389.7392,359.1307,387.3273,358.5124,386.2534,356.6523 M218.8238,452.1951l-4.8616-8.4205
								c-1.0739-1.8601-0.4034-4.258,1.4983-5.356l14.629-8.446c1.9009-1.0975,4.3128-0.4792,5.3867,1.3809l4.8616,8.4205
								c1.0739,1.8601,0.4034,4.258-1.4975,5.3555l-14.629,8.446C222.3096,454.6735,219.8977,454.0552,218.8238,452.1951
								 M372.641,333.0749l-4.8616-8.4205c-1.0739-1.8601-0.4034-4.258,1.4966-5.355l14.629-8.446
								c1.9018-1.098,4.3137-0.4797,5.3876,1.3804l4.8616,8.4205c1.0739,1.8601,0.4034,4.258-1.4984,5.356l-14.629,8.446
								C376.1268,335.5533,373.7149,334.935,372.641,333.0749 M205.2114,428.6177l-4.8616-8.4205
								c-1.0739-1.8601-0.4034-4.258,1.4984-5.356l14.629-8.446c1.9009-1.0975,4.3128-0.4792,5.3867,1.3809l4.8616,8.4205
								c1.0739,1.8601,0.4034,4.258-1.4975,5.3555l-14.629,8.446C208.6972,431.0961,206.2853,430.4778,205.2114,428.6177
								 M359.0286,309.4975l-4.8616-8.4205c-1.0739-1.8601-0.4034-4.258,1.4966-5.355l14.629-8.4461
								c1.9018-1.098,4.3137-0.4797,5.3876,1.3804l4.8616,8.4205c1.0739,1.8601,0.4034,4.258-1.4984,5.356l-14.629,8.446
								C362.5144,311.9759,360.1025,311.3576,359.0286,309.4975 M191.599,405.0403l-4.8616-8.4205
								c-1.0739-1.8601-0.4034-4.258,1.4983-5.356l14.629-8.4461c1.9009-1.0975,4.3128-0.4792,5.3867,1.3809l4.8616,8.4205
								c1.0739,1.8601,0.4034,4.258-1.4975,5.3555l-14.629,8.446C195.0848,407.5187,192.6729,406.9004,191.599,405.0403
								 M345.4162,285.9201l-4.8616-8.4205c-1.0739-1.8601-0.4034-4.258,1.4966-5.355l14.629-8.446
								c1.9018-1.098,4.3137-0.4797,5.3876,1.3804l4.8616,8.4205c1.0739,1.8601,0.4034,4.258-1.4984,5.356l-14.629,8.4461
								C348.902,288.3985,346.4901,287.7802,345.4162,285.9201 M177.9865,381.4629l-4.8616-8.4205
								c-1.0739-1.8601-0.4034-4.258,1.4984-5.356l14.629-8.446c1.9009-1.0975,4.3128-0.4792,5.3867,1.3809l4.8616,8.4205
								c1.0739,1.8601,0.4034,4.258-1.4975,5.3555l-14.629,8.4461C181.4724,383.9413,179.0605,383.323,177.9865,381.4629
								 M331.8037,262.3427l-4.8616-8.4205c-1.0739-1.8601-0.4034-4.258,1.4966-5.355l14.629-8.446
								c1.9018-1.098,4.3137-0.4797,5.3876,1.3804l4.8616,8.4205c1.0739,1.8601,0.4034,4.258-1.4984,5.356l-14.629,8.446
								C335.2896,264.8211,332.8777,264.2028,331.8037,262.3427 M164.3741,357.8855l-4.8616-8.4205
								c-1.0739-1.8601-0.4034-4.258,1.4983-5.356l14.629-8.446c1.9009-1.0975,4.3128-0.4792,5.3867,1.3809l4.8616,8.4205
								c1.0739,1.8601,0.4034,4.258-1.4975,5.3555l-14.629,8.446C167.86,360.3639,165.448,359.7456,164.3741,357.8855
								 M208.2214,74.4348c-3.0589,2.3948-3.9987,6.6772-2.0414,10.0673l82.6468,143.1485l-111.8696,64.588L94.3104,149.09
								c-1.9573-3.3901-6.135-4.7179-9.7384-3.2662l-42.4335,24.499c-3.058,2.3943-3.9987,6.6772-2.0414,10.0673l164.8075,285.455
								c2.1478,3.7202,5.3096,17.1437,14.7754,11.6786l41.4163-21.6663l126.3868-75.2149l40.0705-22.012
								c10.3264-5.9619-0.6911-17.0954-2.8389-20.8156L260.3933,53.202c-1.9573-3.3901-6.1359-4.7174-9.7392-3.2657
								L208.2214,74.4348z"/>
						</defs>
						<clipPath id="SVGID_14_">
							<use xlink:href="#SVGID_13_"  style="overflow:visible;"/>
						</clipPath>
					</g>
					<g class="st11">
						<defs>
							
								<rect id="SVGID_15_" x="99.3217" y="86.4113" transform="matrix(0.866 -0.5 0.5 0.866 -101.7207 153.6008)" width="272.882" height="360.4053"/>
						</defs>
						<clipPath id="SVGID_16_">
							<use xlink:href="#SVGID_15_"  style="overflow:visible;"/>
						</clipPath>
						<g class="st12">
							<g>
								<defs>
									
										<rect id="SVGID_17_" x="170.2493" y="87.3234" transform="matrix(0.866 -0.5 0.5 0.866 -100.1941 152.6957)" width="129.1752" height="351.9782"/>
								</defs>
								<clipPath id="SVGID_18_">
									<use xlink:href="#SVGID_17_"  style="overflow:visible;"/>
								</clipPath>
								<g class="st13">
									<defs>
										
											<rect id="SVGID_19_" x="170.2496" y="87.3234" transform="matrix(0.866 -0.5 0.5 0.866 -100.194 152.6957)" width="129.1749" height="351.9782"/>
									</defs>
									<clipPath id="SVGID_20_">
										<use xlink:href="#SVGID_19_"  style="overflow:visible;"/>
									</clipPath>
								</g>
							</g>
						</g>
					</g>
					<g class="st11">
						<defs>
							
								<rect id="SVGID_21_" x="96.9022" y="97.2999" transform="matrix(0.866 -0.5 0.5 0.866 -66.2018 120.5219)" width="189.7878" height="172.9905"/>
						</defs>
						<clipPath id="SVGID_22_">
							<use xlink:href="#SVGID_21_"  style="overflow:visible;"/>
						</clipPath>
					</g>
					<g class="st11">
						<defs>
							
								<rect id="SVGID_23_" x="99.3217" y="86.4113" transform="matrix(0.866 -0.5 0.5 0.866 -101.7207 153.6008)" width="272.882" height="360.4053"/>
						</defs>
						<clipPath id="SVGID_24_">
							<use xlink:href="#SVGID_23_"  style="overflow:visible;"/>
						</clipPath>
					</g>
					<polygon class="st14" points="414.7234,350.3197 220.6182,461.2637 147.9181,339.318 340.3022,229.3678 					"/>
					<g class="st11">
						<defs>
							
								<rect id="SVGID_25_" x="99.3217" y="86.4113" transform="matrix(0.866 -0.5 0.5 0.866 -101.7207 153.6008)" width="272.882" height="360.4053"/>
						</defs>
						<clipPath id="SVGID_26_">
							<use xlink:href="#SVGID_25_"  style="overflow:visible;"/>
						</clipPath>
						<path class="st15" d="M249.6195,50.4404l-40.4449,23.3508c-3.8018,2.195-5.1428,6.9908-2.995,10.711l82.6468,143.1485
							l-111.8687,64.5874L94.311,149.0897c-2.1478-3.7202-6.9717-4.9568-10.7735-2.7618l-40.4449,23.3509
							c-3.8018,2.195-5.1428,6.9908-2.995,10.711l164.8075,285.455c2.1478,3.7202,5.3087,17.1442,14.7745,11.6791l41.4172-21.6667
							l126.386-75.2144l40.0705-22.012c10.3264-5.9619-0.6911-17.0954-2.8389-20.8156L260.393,53.2022
							C258.2452,49.482,253.4213,48.2454,249.6195,50.4404 M240.3376,439.7741c1.0739,1.8601,0.4034,4.258-1.4975,5.3555
							l-14.629,8.446c-1.9009,1.0975-4.3128,0.4792-5.3867-1.3809l-4.8616-8.4205c-1.0739-1.8601-0.4034-4.258,1.4975-5.3555
							l14.629-8.446c1.9009-1.0975,4.3128-0.4792,5.3867,1.3809L240.3376,439.7741z M226.7252,416.1967
							c1.0739,1.8601,0.4034,4.258-1.4975,5.3555l-14.629,8.446c-1.9009,1.0975-4.3128,0.4792-5.3867-1.3809l-4.8616-8.4205
							c-1.0739-1.8601-0.4034-4.258,1.4975-5.3555l14.629-8.4461c1.9009-1.0975,4.3128-0.4792,5.3867,1.3809L226.7252,416.1967z
							 M213.1128,392.6193c1.0739,1.8601,0.4034,4.258-1.4975,5.3555l-14.629,8.446c-1.9009,1.0975-4.3128,0.4792-5.3867-1.3809
							l-4.8616-8.4205c-1.0739-1.8601-0.4034-4.258,1.4975-5.3555l14.629-8.446c1.9009-1.0975,4.3128-0.4792,5.3867,1.3809
							L213.1128,392.6193z M199.5004,369.0419c1.0739,1.8601,0.4034,4.258-1.4975,5.3555l-14.629,8.4461
							c-1.9009,1.0975-4.3128,0.4792-5.3867-1.3809l-4.8616-8.4205c-1.0739-1.8601-0.4034-4.258,1.4975-5.3555l14.629-8.446
							c1.9009-1.0975,4.3128-0.4792,5.3867,1.3809L199.5004,369.0419z M185.8879,345.4645c1.0739,1.8601,0.4034,4.258-1.4975,5.3555
							l-14.629,8.446c-1.9009,1.0975-4.3128,0.4792-5.3867-1.3809l-4.8616-8.4205c-1.0739-1.8601-0.4034-4.258,1.4975-5.3555
							l14.629-8.446c1.9009-1.0975,4.3128-0.4792,5.3867,1.3809L185.8879,345.4645z M407.7664,344.2318
							c1.0739,1.8601,0.4034,4.258-1.4975,5.3555l-14.629,8.446c-1.9009,1.0975-4.3128,0.4792-5.3867-1.3809l-4.8616-8.4205
							c-1.0739-1.8601-0.4034-4.258,1.4975-5.3555l14.629-8.4461c1.9009-1.0975,4.3128-0.4792,5.3867,1.3809L407.7664,344.2318z
							 M394.154,320.6544c1.0739,1.8601,0.4034,4.258-1.4975,5.3555l-14.629,8.4461c-1.9009,1.0975-4.3128,0.4792-5.3867-1.3809
							l-4.8616-8.4205c-1.0739-1.8601-0.4034-4.258,1.4975-5.3555l14.629-8.446c1.9009-1.0975,4.3128-0.4792,5.3867,1.3809
							L394.154,320.6544z M380.5415,297.077c1.0739,1.8601,0.4034,4.258-1.4975,5.3555l-14.629,8.446
							c-1.9009,1.0975-4.3128,0.4792-5.3867-1.3809l-4.8616-8.4205c-1.0739-1.8601-0.4034-4.258,1.4975-5.3555l14.629-8.446
							c1.9009-1.0975,4.3128-0.4792,5.3867,1.3809L380.5415,297.077z M366.9291,273.4996c1.0739,1.8601,0.4034,4.258-1.4975,5.3555
							l-14.629,8.446c-1.9009,1.0975-4.3128,0.4792-5.3867-1.3809l-4.8616-8.4205c-1.0739-1.8601-0.4034-4.258,1.4975-5.3555
							l14.629-8.446c1.9009-1.0975,4.3128-0.4792,5.3867,1.3809L366.9291,273.4996z M353.3167,249.9222
							c1.0739,1.8601,0.4034,4.258-1.4975,5.3555l-14.629,8.446c-1.9009,1.0975-4.3128,0.4792-5.3867-1.3809l-4.8616-8.4205
							c-1.0739-1.8601-0.4034-4.258,1.4975-5.3555l14.629-8.4461c1.9009-1.0975,4.3128-0.4792,5.3867,1.3809L353.3167,249.9222z"/>
						<g class="st16">
							<g>
								<defs>
									
										<rect id="SVGID_27_" x="170.2493" y="87.3234" transform="matrix(0.866 -0.5 0.5 0.866 -100.1941 152.6957)" width="129.1752" height="351.9782"/>
								</defs>
								<clipPath id="SVGID_28_">
									<use xlink:href="#SVGID_27_"  style="overflow:visible;"/>
								</clipPath>
								
									<rect x="170.2496" y="87.3234" transform="matrix(0.866 -0.5 0.5 0.866 -100.194 152.6957)" class="st17" width="129.1749" height="351.9782"/>
							</g>
						</g>
					</g>
					<g class="st11">
						<defs>
							
								<rect id="SVGID_29_" x="96.9022" y="97.2999" transform="matrix(0.866 -0.5 0.5 0.866 -66.2018 120.5219)" width="189.7878" height="172.9905"/>
						</defs>
						<clipPath id="SVGID_30_">
							<use xlink:href="#SVGID_29_"  style="overflow:visible;"/>
						</clipPath>
						
							<linearGradient id="SVGID_31_" gradientUnits="userSpaceOnUse" x1="-29.5" y1="-12.6669" x2="-28.5" y2="-12.6669" gradientTransform="matrix(164.361 -94.8939 -92.8561 -160.8315 3782.0671 -4605.3618)">
							<stop  offset="0" style="stop-color:#430000"/>
							<stop  offset="0.4011" style="stop-color:#3D0032"/>
							<stop  offset="0.7985" style="stop-color:#38005D"/>
							<stop  offset="1" style="stop-color:#36006E"/>
						</linearGradient>
						<polygon class="st18" points="66.368,156.335 230.729,61.4411 317.2242,211.2553 152.8632,306.1492 						"/>
					</g>
					<g class="st11">
						<defs>
							
								<rect id="SVGID_32_" x="99.3217" y="86.4113" transform="matrix(0.866 -0.5 0.5 0.866 -101.7207 153.6008)" width="272.882" height="360.4053"/>
						</defs>
						<clipPath id="SVGID_33_">
							<use xlink:href="#SVGID_32_"  style="overflow:visible;"/>
						</clipPath>
						<path class="st19" d="M431.4815,357.4854l-213.4111,123.213c-3.8018,2.195-8.6256,0.9584-10.7735-2.7618L44.434,195.8499
							c-2.1478-3.7202-0.8068-8.516,2.995-10.711l213.4112-123.213c3.8018-2.195,8.6256-0.9584,10.7735,2.7618l162.8629,282.0867
							C436.6244,350.4946,435.2834,355.2904,431.4815,357.4854z"/>
					</g>
				</g>
			</g>
		</g>
	</g>
	<g id="Layer_2" class="st0">
		<polygon class="st20" points="163,269.8333 200,205.8333 349.4856,205.6288 385.9112,270.5378 		"/>
		<polygon class="st20" points="275,77.8333 237,141.8333 459.4856,142.5378 495.9112,77.6289 		"/>
		<polygon class="st20" points="312,141.8333 275,77.8333 126,334.8333 164,398.8333 		"/>
	</g>
	<g id="Layer_2_copy">
		<g>
			
				<image style="overflow:visible;opacity:0.4;" width="452" height="402" xlink:href="5FCBC1E9.png"  transform="matrix(1 0 0 1 82.5 33.3333)">
			</image>
			<g>
				<g>
					<linearGradient id="SVGID_34_" gradientUnits="userSpaceOnUse" x1="117.6067" y1="320.0984" x2="479.4894" y2="66.5844">
						<stop  offset="0" style="stop-color:#F7931E"/>
						<stop  offset="0.2654" style="stop-color:#DE6656"/>
						<stop  offset="0.616" style="stop-color:#BF2F99"/>
						<stop  offset="0.8703" style="stop-color:#AB0DC4"/>
						<stop  offset="1" style="stop-color:#A400D4"/>
					</linearGradient>
					<path class="st21" d="M163.6836,269.8355l-35.3293,60.9371c-1.4537,2.5073-1.4376,5.6048,0.0421,8.0969l28.6192,48.2007
						c3.124,5.2614,10.7578,5.2106,13.8115-0.092l65.0078-112.8851c1.4324-2.4873,4.0876-4.0167,6.9579-4.0076l129.4058,0.409
						c6.1262,0.0193,9.9999-6.5726,7.0018-11.9151l-27.4188-48.8592c-1.4177-2.5264-4.0905-4.0889-6.9875-4.0849l-55.7303,0.0762
						c-6.1593,0.0084-10.0173-6.6548-6.9435-11.9923l27.4722-47.7052c1.4332-2.4887,4.0905-4.0183,6.9624-4.0076l138.2267,0.5139
						c2.9037,0.0108,5.5852-1.5526,7.0063-4.0849l27.4298-48.8788c2.9942-5.3356-0.8656-11.9208-6.9839-11.9151l-202.6294,0.1875
						c-2.8503,0.0026-5.4839,1.5216-6.9135,3.9875l-71.9001,124.0157L163.6836,269.8355z"/>
					<linearGradient id="SVGID_35_" gradientUnits="userSpaceOnUse" x1="391.5" y1="180.3333" x2="391.5" y2="180.3333">
						<stop  offset="0" style="stop-color:#000000;stop-opacity:0.2"/>
						<stop  offset="0.2262" style="stop-color:#000000;stop-opacity:0"/>
					</linearGradient>
					<path class="st22" d="M391.5,180.3333"/>
					<linearGradient id="SVGID_36_" gradientUnits="userSpaceOnUse" x1="290.5919" y1="304.2172" x2="350.2107" y2="200.9544">
						<stop  offset="0" style="stop-color:#000000;stop-opacity:0.2"/>
						<stop  offset="1" style="stop-color:#000000;stop-opacity:0"/>
					</linearGradient>
					<polygon class="st23" points="235.5,274.3333 282.5,193.3333 289.5,197.3333 289.5,201.3333 350.5,201.3333 382.5,259.3333 
						382.5,270.3333 368.5,275.3333 					"/>
					<linearGradient id="SVGID_37_" gradientUnits="userSpaceOnUse" x1="337.3885" y1="159.9722" x2="412.4316" y2="29.9938">
						<stop  offset="0" style="stop-color:#000000;stop-opacity:0.2"/>
						<stop  offset="1" style="stop-color:#000000;stop-opacity:0"/>
					</linearGradient>
					<polygon class="st24" points="272.1057,71.717 316.5,150.3333 322.5,145.3333 461.5,146.3333 493.5,87.3333 490.5,75.3333 
											"/>
					<path class="st25" d="M482.2415,77.6415c6.1132,0,9.9688,6.5821,6.9761,11.9151l-27.4298,48.8789
						c-1.4162,2.5235-4.0842,4.0849-6.9764,4.0849c-0.0099,0-0.02,0-0.0299,0l-138.2267-0.5139c-0.0102,0-0.0199-0.0001-0.03-0.0001
						c-2.8602,0-5.5042,1.5277-6.9324,4.0077l-27.4722,47.7051c-3.0718,5.3343,0.7791,11.9923,6.9318,11.9923
						c0.0038,0,0.008,0,0.0117,0l55.7303-0.0763c0.0037,0,0.0072,0,0.0109,0c2.8926,0.0001,5.5606,1.5618,6.9766,4.0849
						l27.4188,48.8592c2.9939,5.335-0.8636,11.9151-6.9749,11.9151c-0.0086,0-0.0183,0-0.0269,0l-129.4058-0.4089
						c-0.0086,0-0.017-0.0001-0.0256-0.0001c-2.8605,0-5.5042,1.5278-6.9324,4.0077l-65.0077,112.8851
						c-1.5372,2.6694-4.2347,4.0077-6.9337,4.0077c-2.6624,0-5.3264-1.3029-6.8778-3.9157l-28.6192-48.2008
						c-1.4797-2.4921-1.4958-5.5895-0.0421-8.0969l35.3293-60.937l37.1069-64.0032l71.9001-124.0157
						c1.4296-2.4659,4.0632-3.9848,6.9135-3.9875l202.6294-0.1875C482.2366,77.6415,482.2385,77.6415,482.2415,77.6415
						 M482.2415,69.6415h-0.0079l-202.6368,0.1875c-5.6801,0.0053-10.9782,3.0611-13.8271,7.975l-71.9001,124.0157l-37.1069,64.0032
						L121.4333,326.76c-2.9044,5.0095-2.8721,11.2146,0.0842,16.1937l28.6192,48.2008c2.9117,4.9037,8.0543,7.8313,13.7566,7.8313
						c5.7923,0,10.976-2.9964,13.8663-8.0153l65.0078-112.8851l129.4059,0.4089l0.0126,0.0001l0.0395,0.0001
						c5.7428,0,10.904-2.9591,13.8062-7.9156c2.9019-4.9562,2.9563-10.9056,0.1453-15.9146l-27.4188-48.8592
						c-2.8279-5.0393-8.1743-8.1697-13.9529-8.1699l-55.7496,0.0763l27.4694-47.7051l138.2267,0.5139l0.0149,0.0001l0.0447,0.0001
						c5.7784,0,11.1249-3.1305,13.9529-8.1697l27.4299-48.879c2.8107-5.0086,2.7561-10.9579-0.146-15.9143
						C493.1459,72.6007,487.9846,69.6415,482.2415,69.6415L482.2415,69.6415z"/>
				</g>
			</g>
		</g>
	</g>
	<path class="st26" d="M457,77.8333"/>
	<path class="st26" d="M279,454.5358"/>
	<path class="st26" d="M535,11.1308"/>
</g>
</svg>
