<?xml version="1.0" encoding="utf-8"?>
<!-- Generator: Adobe Illustrator 25.2.1, SVG Export Plug-In . SVG Version: 6.00 Build 0)  -->
<svg version="1.1" id="Layer_1" xmlns="http://www.w3.org/2000/svg" xmlns:xlink="http://www.w3.org/1999/xlink" x="0px" y="0px"
	 viewBox="0 0 16 16" style="enable-background:new 0 0 16 16;" xml:space="preserve">
<style type="text/css">
	.st0{fill-rule:evenodd;clip-rule:evenodd;fill:#CC3E44;}
</style>
<path class="st0" d="M13.9,4.4l-3.3-3.3L10.2,1H2.5L2,1.5V7h1V2h6v3.5L9.5,6H13v1h1V4.8L13.9,4.4z M10,5V2l3,3H10z M2.5,8L2,8.5v6
	L2.5,15h11l0.5-0.5v-6L13.5,8H2.5z M13,13v1H3V9h10V13z M5,12H4.7v1H4v-3h1.1c0.8,0,1.1,0.4,1.1,1c0,0.3-0.1,0.5-0.3,0.7
	C5.6,11.9,5.3,12,5,12z M4.9,10.6H4.7v0.9h0.3c0.4,0,0.5-0.2,0.5-0.5S5.3,10.6,4.9,10.6z M9,12.6c0.3-0.3,0.5-0.7,0.4-1.1
	c0-1-0.5-1.5-1.6-1.5H6.8v3h1.1C8.3,13,8.7,12.9,9,12.6z M7.4,12.5v-1.9h0.3c0.3,0,0.5,0.1,0.7,0.2c0.2,0.2,0.3,0.4,0.2,0.7
	c0,0.3-0.1,0.5-0.2,0.7c-0.2,0.2-0.4,0.3-0.7,0.3C7.8,12.5,7.4,12.5,7.4,12.5z M11.9,11.8h-1V13h-0.7v-3H12v0.6h-1.1v0.7h1
	C11.9,11.3,11.9,11.8,11.9,11.8z"/>
</svg>
