<?xml version="1.0" encoding="utf-8"?>
<svg version="1.1" id="Layer_1" xmlns="http://www.w3.org/2000/svg" xmlns:xlink="http://www.w3.org/1999/xlink" x="0px" y="0px"
	 viewBox="0 0 16 16" style="enable-background:new 0 0 16 16;" xml:space="preserve" fill="#616161">
<polygon points="0.5,1.999 0,2.499 0,13.499 0.5,13.999 3,13.999 3,12.999 1,12.999 1,2.999 3,2.999 3,1.999 "/>
<path d="M5.056,6.499c-0.135,0-0.285,0.024-0.45,0.073C4.469,6.609,4.338,6.665,4.218,6.739v0.665C4.455,7.201,4.705,7.1,4.968,7.1
	c0.261,0,0.392,0.156,0.392,0.469l-0.6,0.103C4.254,7.758,4,8.078,4,8.633c0,0.263,0.061,0.473,0.183,0.631
	C4.304,9.42,4.493,9.508,4.69,9.499c0.29,0,0.509-0.16,0.657-0.48h0.009v0.41H6v-1.71C6,6.907,5.685,6.499,5.056,6.499z M5.36,8.267
	c0.006,0.154-0.036,0.306-0.12,0.436C5.172,8.81,5.054,8.874,4.927,8.873c-0.084,0.003-0.165-0.031-0.22-0.095
	C4.652,8.708,4.624,8.62,4.627,8.53c0-0.222,0.11-0.351,0.332-0.389l0.4-0.067H5.36V8.267z"/>
<path d="M8.799,7.064C8.666,6.829,8.474,6.711,8.226,6.711c-0.27,0-0.479,0.155-0.625,0.465H7.593V5.499H7v3.936h0.593v-0.31H7.6
	h0.001c0.121,0.249,0.3,0.374,0.537,0.374c0.262,0,0.472-0.134,0.627-0.402C8.922,8.828,9,8.473,9,8.03
	C9,7.621,8.933,7.3,8.799,7.064z M8.279,8.655C8.205,8.799,8.1,8.871,7.965,8.871c-0.111,0-0.203-0.056-0.274-0.169
	C7.615,8.574,7.578,8.426,7.584,8.276V8.004C7.576,7.837,7.617,7.67,7.7,7.524c0.079-0.123,0.178-0.185,0.298-0.185
	c0.126,0,0.223,0.063,0.29,0.187C8.357,7.65,8.392,7.82,8.392,8.04C8.392,8.305,8.354,8.51,8.279,8.655z"/>
<path d="M11.262,9.499c0.321,0,0.567-0.058,0.738-0.173v-0.71c-0.156,0.129-0.35,0.202-0.552,0.207
	c-0.191,0.009-0.375-0.07-0.5-0.215c-0.12-0.145-0.181-0.345-0.181-0.598c0-0.26,0.063-0.464,0.189-0.612
	c0.129-0.149,0.319-0.232,0.516-0.223c0.194,0,0.37,0.069,0.528,0.207V6.633c-0.129-0.09-0.338-0.134-0.626-0.134
	c-0.417,0-0.751,0.14-1.001,0.422C10.124,7.201,10,7.583,10,8.069c0,0.42,0.116,0.764,0.349,1.03
	C10.581,9.366,10.886,9.499,11.262,9.499z"/>
<polygon points="3,6.669 3,4.999 5,4.999 5,3.999 2.5,3.999 2,4.499 2,6.669 2,9.339 2,11.509 2.5,12.009 5,12.009 5,11.009 
	3,11.009 3,9.339 "/>
<polygon points="13,2.004 13,3.004 15,3.004 15,13.004 13,13.004 13,14.004 15.5,14.004 16,13.504 16,2.504 15.5,2.004 "/>
<polygon points="13,6.674 13,5.004 11,5.004 11,4.004 13.5,4.004 14,4.504 14,6.674 14,9.344 14,11.513 13.5,12.013 11,12.013 
	11,11.013 13,11.013 13,9.344 "/>
</svg>
