<?xml version="1.0" encoding="utf-8"?>
<svg version="1.1" id="Layer_1" xmlns="http://www.w3.org/2000/svg" xmlns:xlink="http://www.w3.org/1999/xlink" x="0px" y="0px"
	 viewBox="0 0 16 16" style="enable-background:new 0 0 16 16;" xml:space="preserve" fill="#616161">
<path d="M8.056,6.499c-0.135,0-0.285,0.024-0.45,0.073C7.469,6.609,7.338,6.665,7.218,6.739v0.665C7.455,7.201,7.705,7.1,7.968,7.1
	c0.261,0,0.392,0.156,0.392,0.469l-0.6,0.103C7.254,7.758,7,8.078,7,8.633c0,0.263,0.061,0.473,0.183,0.631
	C7.304,9.42,7.493,9.507,7.69,9.499c0.29,0,0.509-0.16,0.657-0.48h0.009v0.41H9v-1.71C9,6.907,8.685,6.499,8.056,6.499z M8.36,8.267
	c0.006,0.154-0.036,0.306-0.12,0.436C8.172,8.81,8.054,8.874,7.927,8.873c-0.084,0.003-0.165-0.031-0.22-0.095
	C7.652,8.708,7.624,8.62,7.627,8.53c0-0.222,0.11-0.351,0.332-0.389l0.4-0.067H8.36V8.267z"/>
<path d="M11.799,7.064c-0.133-0.235-0.325-0.353-0.573-0.353c-0.27,0-0.479,0.155-0.625,0.465h-0.008V5.499H10v3.936h0.593v-0.31
	H10.6h0.001c0.121,0.249,0.3,0.374,0.537,0.374c0.262,0,0.472-0.134,0.627-0.402C11.922,8.828,12,8.473,12,8.03
	C12,7.621,11.933,7.3,11.799,7.064z M11.279,8.655c-0.074,0.144-0.179,0.216-0.314,0.216c-0.111,0-0.203-0.056-0.274-0.169
	c-0.076-0.129-0.113-0.277-0.107-0.426V8.004c-0.008-0.168,0.033-0.334,0.116-0.48c0.079-0.123,0.178-0.185,0.298-0.185
	c0.126,0,0.223,0.063,0.29,0.187c0.069,0.124,0.104,0.294,0.104,0.514C11.392,8.305,11.354,8.51,11.279,8.655z"/>
<path d="M14.262,9.499c0.321,0,0.567-0.058,0.738-0.173v-0.71c-0.156,0.129-0.35,0.202-0.552,0.207
	c-0.191,0.009-0.375-0.07-0.5-0.215c-0.12-0.145-0.181-0.345-0.181-0.598c0-0.26,0.063-0.464,0.189-0.612
	c0.129-0.149,0.319-0.232,0.516-0.223c0.194,0,0.37,0.069,0.528,0.207V6.633c-0.129-0.09-0.338-0.134-0.626-0.134
	c-0.417,0-0.751,0.14-1.001,0.422C13.124,7.201,13,7.583,13,8.069c0,0.42,0.116,0.764,0.349,1.03
	C13.581,9.366,13.886,9.499,14.262,9.499z"/>
<rect x="0.984" y="6.641" width="5" height="1"/>
<rect x="0.984" y="8.605" width="5" height="1"/>
</svg>
