<?xml version="1.0" encoding="utf-8"?>
<!-- Generator: Adobe Illustrator 16.0.4, SVG Export Plug-In . SVG Version: 6.00 Build 0)  -->
<!DOCTYPE svg PUBLIC "-//W3C//DTD SVG 1.1//EN" "http://www.w3.org/Graphics/SVG/1.1/DTD/svg11.dtd">
<svg version="1.1" id="Capa_1" xmlns="http://www.w3.org/2000/svg" xmlns:xlink="http://www.w3.org/1999/xlink" x="0px" y="0px"
	 width="216px" height="146px" viewBox="0 0 216 146" enable-background="new 0 0 216 146" xml:space="preserve">
<path  style="fill:#333333;" d="M168.371,89.052l-52.958-53.04c-2.117-2.01-4.589-3.015-7.413-3.015c-2.879,0-5.323,1.005-7.333,3.015l-53.039,53.04
	c-2.064,2.063-3.096,4.535-3.096,7.414c0,2.933,1.033,5.377,3.096,7.332l6.11,6.11c1.956,2.064,4.4,3.097,7.333,3.097
	c2.933,0,5.377-1.034,7.333-3.097L108,70.393l39.596,39.514c1.955,2.063,4.399,3.097,7.334,3.097c2.877,0,5.35-1.034,7.413-3.097
	l6.109-6.11c2.01-2.01,3.016-4.454,3.016-7.332C171.468,93.586,170.436,91.114,168.371,89.052z"/>
</svg>
