<?xml version="1.0" encoding="utf-8"?>
<!-- Generator: Adobe Illustrator 16.0.4, SVG Export Plug-In . SVG Version: 6.00 Build 0)  -->
<!DOCTYPE svg PUBLIC "-//W3C//DTD SVG 1.1//EN" "http://www.w3.org/Graphics/SVG/1.1/DTD/svg11.dtd">
<svg version="1.1" id="Capa_1" xmlns="http://www.w3.org/2000/svg" xmlns:xlink="http://www.w3.org/1999/xlink" x="0px" y="0px"
	 width="27.518px" height="38.553px" viewBox="0 0 27.518 38.553" enable-background="new 0 0 27.518 38.553" xml:space="preserve">
<g id="c110_arrows">
	<path d="M27.359,18.817c-0.524-0.522-5.509-5.351-5.509-5.351s-0.666-0.669-0.666,0.215c0,0.889,0,2.301,0,2.301H6.334
		c0,0,0-1.412,0-2.301c0-0.884-0.666-0.215-0.666-0.215s-4.986,4.826-5.508,5.351c-0.383,0.383,0.044,0.742,0.044,0.742l5.339,5.489
		c0,0,0.635,0.67,0.635-0.06c-0.004-0.729,0-2.489,0-2.489h15.163c0,0,0,1.763,0,2.489c0,0.729,0.637,0.057,0.637,0.057l5.34-5.485
		C27.317,19.56,27.74,19.199,27.359,18.817z"/>
</g>
<g id="Capa_1_1_">
</g>
</svg>
