<?xml version="1.0" encoding="utf-8"?>
<!-- Generator: Adobe Illustrator 18.0.0, SVG Export Plug-In . SVG Version: 6.00 Build 0)  -->
<!DOCTYPE svg PUBLIC "-//W3C//DTD SVG 1.1//EN" "http://www.w3.org/Graphics/SVG/1.1/DTD/svg11.dtd">
<svg version="1.1" id="Capa_1" xmlns:sketch="http://www.bohemiancoding.com/sketch/ns"
	 xmlns="http://www.w3.org/2000/svg" xmlns:xlink="http://www.w3.org/1999/xlink" x="0px" y="0px" viewBox="0 0 32 32"
	 enable-background="new 0 0 32 32" xml:space="preserve">
<title>icon 40 clipboard list</title>
<desc>Created with Sketch.</desc>
<g>
	<path style="fill:#eeeeee;" d="M11,8h9c0.5,0,1-0.4,1-1V6c0-0.6-0.4-1-1-1h-2V4c0-1.1-0.9-2-2-2h-1c-1.1,0-2,0.9-2,2v1h-2c-0.5,0-1,0.4-1,1v1
		C10,7.6,10.4,8,11,8z M15.5,4C15.8,4,16,4.2,16,4.5S15.8,5,15.5,5S15,4.8,15,4.5S15.2,4,15.5,4z"/>
	<rect style="fill:#eeeeee;" x="10" y="24" width="1" height="1"/>
	<rect style="fill:#eeeeee;" x="10" y="14" width="1" height="1"/>
	<path style="fill:#eeeeee;" d="M23,6h-1c0,0,0,0,0,0v1c0,1.1-0.9,2-2,2h-9C9.9,9,9,8.1,9,7V6c0,0,0,0,0,0H8C6.9,6,6,6.9,6,8v21c0,1.1,0.9,2,2,2h15
		c1.1,0,2-0.9,2-2V8C25,6.9,24.1,6,23,6z M12,26H9v-3h3V26z M12,21H9v-3h3V21z M12,16H9v-3h3V16z M22,25h-8v-1h8V25z M22,20h-8v-1h8
		V20z M22,15h-8v-1h8V15z"/>
	<rect style="fill:#eeeeee;" x="10" y="19" width="1" height="1"/>
</g>
</svg>
