<?xml version="1.0" encoding="utf-8"?>
<!-- Generator: Adobe Illustrator 17.0.0, SVG Export Plug-In . SVG Version: 6.00 Build 0)  -->
<!DOCTYPE svg PUBLIC "-//W3C//DTD SVG 1.1//EN" "http://www.w3.org/Graphics/SVG/1.1/DTD/svg11.dtd">
<svg version="1.1" id="Capa_1" xmlns="http://www.w3.org/2000/svg" xmlns:xlink="http://www.w3.org/1999/xlink" x="0px" y="0px"
	 width="64px" height="64px" viewBox="0 0 64 64" enable-background="new 0 0 64 64" xml:space="preserve">
<path style="fill:#eeeeee;" d="M23.605,50.6c-1.528,0-2.766,1.462-2.766,3.268c0,1.805,2.131,3.268,4.76,3.268h13.104c2.628,0,4.76-1.464,4.76-3.268
	c0-1.806-1.575-3.268-3.519-3.268h-3.519V28.714c0-2.629-2.131-4.76-4.76-4.76h-6.065c-2.628,0-4.76,1.463-4.76,3.268
	c0,1.806,1.238,3.268,2.766,3.268h2.765V50.6C26.371,50.6,25.132,50.6,23.605,50.6z"/>
<path style="fill:#eeeeee;" d="M37.681,13.391c0-3.049-2.476-5.525-5.531-5.525c-3.053,0-5.529,2.477-5.529,5.525c0,3.056,2.476,5.532,5.529,5.532
	C35.205,18.923,37.681,16.446,37.681,13.391z"/>
</svg>
