<?xml version="1.0" encoding="utf-8"?>
<!-- Generator: Adobe Illustrator 16.0.4, SVG Export Plug-In . SVG Version: 6.00 Build 0)  -->
<!DOCTYPE svg PUBLIC "-//W3C//DTD SVG 1.1//EN" "http://www.w3.org/Graphics/SVG/1.1/DTD/svg11.dtd">
<svg version="1.1" id="Capa_1" xmlns="http://www.w3.org/2000/svg" xmlns:xlink="http://www.w3.org/1999/xlink" x="0px" y="0px"
	 width="100px" height="117.5px" viewBox="0 0 100 117.5" enable-background="new 0 0 100 117.5" xml:space="preserve">
<path style="fill:#eeeeee;" d="M50,32.15c-31.163,0-47.5,22.96-47.5,26.6c0,3.641,16.337,26.6,47.5,26.6c31.161,0,47.5-22.959,47.5-26.6
	C97.5,55.11,81.161,32.15,50,32.15z M50,79.212c-11.659,0-21.112-9.161-21.112-20.462S38.341,38.288,50,38.288
	s21.111,9.161,21.111,20.462S61.659,79.212,50,79.212z M60.555,58.75c0,5.65-4.727,10.232-10.555,10.232
	c-5.83,0-10.555-4.582-10.555-10.232c0-5.65,4.725-10.231,10.555-10.231c3.15,0-1.933,8.108,0,10.231
	C51.643,60.553,60.555,56.155,60.555,58.75z"/>
</svg>
