<?xml version="1.0" encoding="utf-8"?>
<!-- Generator: Adobe Illustrator 17.0.0, SVG Export Plug-In . SVG Version: 6.00 Build 0)  -->
<!DOCTYPE svg PUBLIC "-//W3C//DTD SVG 1.1//EN" "http://www.w3.org/Graphics/SVG/1.1/DTD/svg11.dtd">
<svg version="1.1" id="Capa_1" xmlns="http://www.w3.org/2000/svg" xmlns:xlink="http://www.w3.org/1999/xlink" x="0px" y="0px"
	 width="64px" height="64px" viewBox="0 0 64 64" enable-background="new 0 0 64 64" xml:space="preserve">
<path style="fill:#eeeeee;" d="M9.325,59h44.524c2.209,0,4-1.791,4-4V10c0-2.209-1.791-4-4-4H46.9v15.393H15.322V6H9.325c-2.209,0-4,1.791-4,4v45
	C5.325,57.209,7.116,59,9.325,59z M14.132,34.04c0-2.209,1.791-4,4-4h27.069c2.209,0,4,1.791,4,4v15.961c0,2.209-1.791,4-4,4H18.132
	c-2.209,0-4-1.791-4-4V34.04z"/>
<path style="fill:#eeeeee;" d="M22.672,49.038H40.66c1.861,0,3.369-1.508,3.369-3.369v-7.295c0-1.861-1.508-3.369-3.369-3.369H22.672
	c-1.861,0-3.369,1.508-3.369,3.369v7.295C19.303,47.53,20.811,49.038,22.672,49.038z"/>
<path style="fill:#eeeeee;" d="M34.92,10v4.5c0,2.209,1.567,4,3.5,4s3.5-1.791,3.5-4V10c0-2.209-1.567-4-3.5-4S34.92,7.791,34.92,10z"/>
</svg>
