<?xml version="1.0" encoding="utf-8"?>
<!-- Generator: Adobe Illustrator 15.0.0, SVG Export Plug-In . SVG Version: 6.00 Build 0)  -->
<!DOCTYPE svg PUBLIC "-//W3C//DTD SVG 1.1//EN" "http://www.w3.org/Graphics/SVG/1.1/DTD/svg11.dtd">
<svg version="1.1" id="Layer_1" xmlns="http://www.w3.org/2000/svg" xmlns:xlink="http://www.w3.org/1999/xlink" x="0px" y="0px"
	 width="64px" height="64px" viewBox="0 0 64 64" enable-background="new 0 0 64 64" xml:space="preserve">
<g>
	<g>
		<path  style="fill:#eeeeee;" d="M54.107,24.768l-0.286-0.102l-1.118-2.667l0.121-0.274c3.386-7.676,3.152-7.905,2.591-8.462L50.9,8.859
			c-0.185-0.183-0.509-0.312-0.788-0.312c-0.254,0-1.023,0-7.692,3.02l-0.267,0.12l-2.751-1.108l-0.111-0.274
			c-3.135-7.764-3.457-7.764-4.237-7.764h-6.376c-0.777,0-1.131,0-4.039,7.778l-0.109,0.283l-2.737,1.116l-0.262-0.109
			c-4.513-1.903-7.148-2.868-7.835-2.868c-0.279,0-0.604,0.125-0.79,0.308l-4.519,4.417c-0.573,0.565-0.811,0.802,2.751,8.318
			l0.131,0.279l-1.119,2.664l-0.274,0.106C1.93,27.904,1.93,28.203,1.93,29.003v6.248c0,0.802,0,1.135,7.962,3.988l0.285,0.101
			l1.119,2.656l-0.12,0.272c-3.385,7.679-3.17,7.887-2.594,8.46l4.508,4.41c0.189,0.183,0.516,0.312,0.795,0.312
			c0.252,0,1.02,0,7.692-3.018l0.267-0.126l2.753,1.114l0.107,0.275c3.138,7.762,3.46,7.762,4.241,7.762h6.378
			c0.801,0,1.132,0,4.042-7.783l0.109-0.283l2.741-1.109l0.261,0.107c4.51,1.908,7.143,2.871,7.826,2.871
			c0.277,0,0.605-0.122,0.793-0.308l4.527-4.426c0.569-0.569,0.806-0.802-2.762-8.31l-0.133-0.282l1.117-2.653l0.267-0.104
			c7.959-3.087,7.959-3.388,7.959-4.189v-6.244C62.07,27.942,62.07,27.611,54.107,24.768z M32,42.132
			c-5.698,0-10.334-4.547-10.334-10.132S26.302,21.874,32,21.874c5.696,0,10.331,4.542,10.331,10.126S37.696,42.132,32,42.132z"/>
	</g>
</g>
</svg>
