<?xml version="1.0" encoding="utf-8"?>
<!-- Generator: Adobe Illustrator 17.1.0, SVG Export Plug-In . SVG Version: 6.00 Build 0)  -->
<!DOCTYPE svg PUBLIC "-//W3C//DTD SVG 1.1//EN" "http://www.w3.org/Graphics/SVG/1.1/DTD/svg11.dtd">
<svg version="1.1" id="Layer_1" xmlns="http://www.w3.org/2000/svg" xmlns:xlink="http://www.w3.org/1999/xlink" x="0px" y="0px"
	 viewBox="0 0 90 90" enable-background="new 0 0 90 90" xml:space="preserve">
<path style="fill:#eeeeee;" d="M82,74v1c0,0.552-0.448,1-1,1H12c-1.657,0-3-1.343-3-3V15c0-0.552,0.448-1,1-1h1c0.552,0,1,0.448,1,1v57
	c0,0.552,0.448,1,1,1h68C81.552,73,82,73.448,82,74z M19,70h12c0.552,0,1-0.448,1-1V29c0-0.552-0.448-1-1-1H19c-0.552,0-1,0.448-1,1
	v40C18,69.552,18.448,70,19,70z M38,70h12c0.552,0,1-0.448,1-1V21c0-0.552-0.448-1-1-1H38c-0.552,0-1,0.448-1,1v48
	C37,69.552,37.448,70,38,70z M57,70h12c0.552,0,1-0.448,1-1V44c0-0.552-0.448-1-1-1H57c-0.552,0-1,0.448-1,1v25
	C56,69.552,56.448,70,57,70z"/>
</svg>
