<?xml version="1.0" encoding="iso-8859-1"?>
<!-- Generator: Adobe Illustrator 16.0.4, SVG Export Plug-In . SVG Version: 6.00 Build 0)  -->
<!DOCTYPE svg PUBLIC "-//W3C//DTD SVG 1.1//EN" "http://www.w3.org/Graphics/SVG/1.1/DTD/svg11.dtd">
<svg version="1.1" id="Capa_1" xmlns="http://www.w3.org/2000/svg" xmlns:xlink="http://www.w3.org/1999/xlink" x="0px" y="0px"
	 width="40.007px" height="40.007px" viewBox="0 0 40.007 40.007" style="enable-background:new 0 0 40.007 40.007;"
	 xml:space="preserve">
<g id="_x34_99._Up">
	<g>
		<path fill="#333333" d="M37.324,10.004C31.802,0.438,19.569-2.84,10.004,2.683C0.438,8.205-2.84,20.438,2.684,30.004
			c5.522,9.565,17.754,12.843,27.32,7.32C39.569,31.801,42.848,19.569,37.324,10.004z M28.004,33.859
			c-7.652,4.418-17.438,1.797-21.856-5.855c-4.418-7.653-1.796-17.438,5.856-21.856c7.652-4.419,17.438-1.797,21.856,5.856
			C38.278,19.656,35.656,29.441,28.004,33.859z M21.418,15.418c-0.391-0.391-0.902-0.586-1.414-0.586s-1.023,0.195-1.414,0.586
			l-5.657,5.656c-0.781,0.781-0.781,2.048,0,2.829v-0.001c0.781,0.781,2.048,0.781,2.828,0l4.243-4.242l4.242,4.242
			c0.781,0.781,2.048,0.781,2.828,0v0.001c0.781-0.781,0.781-2.048,0-2.829L21.418,15.418z"/>
	</g>
</g>
</svg>
